<svg xmlns="http://www.w3.org/2000/svg" viewBox="0 0 750 500"><g id="freepik--Window--inject-64"><g style="opacity:0.30000000000000004"><polygon points="271.52 0 0 161.76 0 122.13 204.99 0 271.52 0" style="fill:#ebebeb"></polygon><polygon points="750 222.25 750 261.89 603.03 349.43 536.49 349.43 750 222.25" style="fill:#ebebeb"></polygon><polygon points="127.39 0 0 75.9 0 62.91 105.62 0 127.39 0" style="fill:#ebebeb"></polygon><polygon points="750 78.83 750 91.79 317.55 349.43 295.75 349.43 750 78.83" style="fill:#ebebeb"></polygon><polygon points="750 282.92 750 295.89 660.13 349.43 638.33 349.43 750 282.92" style="fill:#ebebeb"></polygon><polygon points="655.75 0 69.19 349.43 47.39 349.43 633.97 0 655.75 0" style="fill:#ebebeb"></polygon><polygon points="431.34 0 0 256.97 0 253.94 426.28 0 431.34 0" style="fill:#ebebeb"></polygon><polygon points="750 111.75 750 114.78 356.11 349.43 351.03 349.43 750 111.75" style="fill:#ebebeb"></polygon></g><rect y="96" width="750" height="2.81" style="fill:#a6a6a6"></rect><rect x="69.08" y="142.6" width="349.43" height="64.23" transform="translate(418.51 -69.08) rotate(90)" style="fill:#dbdbdb"></rect><rect x="331.49" y="142.6" width="349.43" height="64.23" transform="translate(680.92 -331.49) rotate(90)" style="fill:#dbdbdb"></rect><rect y="349.43" width="750" height="8.84" style="fill:#a6a6a6"></rect></g><g id="freepik--character-3--inject-64"><path d="M574.44,332.83c-1.5.48-44.13-.06-45.74-1.11-.61-.39-.9-6.61-1-14.13v-.24c0-1.55,0-3.14-.06-4.76,0-.22,0-.45,0-.67l2.07-22.12,27.52.28L555.39,312l0,.87-.17,4.54v.46s16.22,7.51,17.87,8.85S575.94,332.35,574.44,332.83Z" style="fill:#f7a9a0"></path><path d="M574.44,332.83c-1.5.48-44.13-.06-45.74-1.11-.61-.39-.9-6.61-1-14.13v-.24c0-1.55,0-3.14-.06-4.76,0-.22,0-.45,0-.67l27.78.07,0,.87-.17,4.54v.46s16.22,7.51,17.87,8.85S575.94,332.35,574.44,332.83Z" style="fill:#ebebeb"></path><path d="M574.44,332.83c-.77.24-12.35.22-23.67,0-2.28,0-4.54-.09-6.7-.15-8.07-.22-14.74-.55-15.36-1s-.9-6.43-1-13.81c0-.1,0-.21,0-.31a1.93,1.93,0,0,0,0-.24h0l27.47,0v.47s16.23,7.51,17.87,8.85S575.94,332.35,574.44,332.83Z" style="fill:#EECD18"></path><path d="M574.44,332.83c-.77.24-12.35.22-23.67,0-2.28,0-4.54-.09-6.7-.15-8.07-.22-14.74-.55-15.36-1s-.9-6.43-1-13.81c0-.1,0-.21,0-.31a1.93,1.93,0,0,0,0-.24h0l27.47,0v.47s16.23,7.51,17.87,8.85S575.94,332.35,574.44,332.83Z" style="opacity:0.5"></path><path d="M574,331.17c-7.19-.27-36.19-.67-43.31-.39-.06,0-.06,0,0,0,7.12.43,36.12.59,43.31.47C574.13,331.28,574.13,331.17,574,331.17Z" style="fill:#263238"></path><path d="M558.24,317.51c-2.82-.56-6.28-.17-8.47,1.82-.08.07,0,.19.12.17a39.33,39.33,0,0,1,8.34-1.63A.18.18,0,0,0,558.24,317.51Z" style="fill:#263238"></path><path d="M560.27,318.77c-2.82-.56-6.29-.17-8.47,1.81-.09.08,0,.2.11.17a40.2,40.2,0,0,1,8.34-1.62A.18.18,0,0,0,560.27,318.77Z" style="fill:#263238"></path><path d="M562.29,320c-2.82-.57-6.28-.18-8.47,1.81-.08.08,0,.2.12.17a39.33,39.33,0,0,1,8.34-1.63A.18.18,0,0,0,562.29,320Z" style="fill:#263238"></path><path d="M550.77,332.82c-2.28,0-4.54-.09-6.7-.15-8.07-.22-14.74-.55-15.36-1s-.9-6.43-1-13.81c0-.1,0-.21,0-.31a1.93,1.93,0,0,0,0-.24h0C531.47,320,544.74,328.81,550.77,332.82Z" style="opacity:0.1"></path><path d="M556.82,317.49h-30.7s6.17-71.71,5.93-73c-.31-1.6-2.13-8.86-4.54-18.34-.76-3-1.57-6.15-2.42-9.45-2.29-8.92-4.82-18.67-7-27.15a185.57,185.57,0,0,0-5.88-19.26h26s21.39,61.24,22.24,73.9C561.2,255.26,556.82,317.49,556.82,317.49Z" style="fill:#263238"></path><path d="M555.46,312.25c-4.69-.09-3.34-.13-8-.18-2.29,0-17.37-.15-19.52.21,0,0,0,.09,0,.09,2.15.36,17.23.22,19.52.2,4.69,0,3.34-.08,8-.18A.07.07,0,0,0,555.46,312.25Z" style="fill:#37474f"></path><path d="M537.82,240.15c-1-4.44-2.51-8.79-3.82-13.14q-4-13.29-8-26.54c-1.34-4.43-7.59-21-8.2-23.17-.25-.89-.39-.4-.07.74.65,2.29,11.32,35.08,14,44.07q2,6.75,4.07,13.51a54.3,54.3,0,0,1,1.66,6.53,29.82,29.82,0,0,1,.27,7c-.29,4.69-.83,9.38-1.26,14.07s-.87,9.39-1.31,14.09q-1.29,14-2.56,28c-.11,1.19-.21,2.37-.3,3.56,0,.39.57.36.61,0,1-9.24,1.78-18.51,2.65-27.77l2.58-27.63c.21-2.31.46-4.63.46-7A28.6,28.6,0,0,0,537.82,240.15Z" style="fill:#37474f"></path><path d="M535.26,170.32c-1.81,14-5.24,36.86-7.75,55.87-5.87-23-15.32-55.86-15.32-55.86Z" style="fill:#37474f"></path><path d="M542.69,333.25c-1.5.48-44.13.1-45.74-.95-.62-.39-.93-6.6-1.08-14.12v-.24c0-1.55-.06-3.14-.07-4.76,0-.22,0-.45,0-.67-.1-10.85.68-22.12.68-22.12l27.86.18-.77,21.91,0,.87-.15,4.53,0,.47s16.25,7.45,17.91,8.79S544.18,332.76,542.69,333.25Z" style="fill:#f7a9a0"></path><path d="M542.69,333.25c-1.5.48-44.13.1-45.74-.95-.62-.39-.93-6.6-1.08-14.12v-.24c0-1.55-.06-3.14-.07-4.76,0-.22,0-.45,0-.67l27.77,0,0,.87-.15,4.53,0,.47s16.25,7.45,17.91,8.79S544.18,332.76,542.69,333.25Z" style="fill:#ebebeb"></path><path d="M542.69,333.25c-1.5.48-44.13.1-45.74-.95-.62-.39-.93-6.6-1.08-14.12v-.24l27.51-.06,0,.47s16.25,7.45,17.91,8.79S544.18,332.76,542.69,333.25Z" style="fill:#EECD18"></path><path d="M542.69,333.25c-1.5.48-44.13.1-45.74-.95-.62-.39-.93-6.6-1.08-14.12v-.24l27.51-.06,0,.47s16.25,7.45,17.91,8.79S544.18,332.76,542.69,333.25Z" style="opacity:0.5"></path><path d="M542.22,331.59c-7.18-.24-36.19-.54-43.31-.23-.06,0-.06,0,0,0,7.12.4,36.12.46,43.31.31C542.37,331.7,542.37,331.59,542.22,331.59Z" style="fill:#263238"></path><path d="M526.44,318c-2.83-.55-6.29-.15-8.47,1.84-.08.08,0,.2.12.17a40,40,0,0,1,8.33-1.65A.18.18,0,0,0,526.44,318Z" style="fill:#263238"></path><path d="M528.47,319.24c-2.83-.55-6.29-.15-8.47,1.84-.08.08,0,.2.12.17a40,40,0,0,1,8.33-1.65A.18.18,0,0,0,528.47,319.24Z" style="fill:#263238"></path><path d="M530.5,320.49c-2.83-.56-6.29-.15-8.47,1.84-.08.08,0,.2.12.17a40,40,0,0,1,8.33-1.65A.18.18,0,0,0,530.5,320.49Z" style="fill:#263238"></path><path d="M538,170.32a100.19,100.19,0,0,1-3.44,19c-.23.81-.48,1.62-.74,2.39a76.06,76.06,0,0,0-6.84,3.85s-.3,10-.59,21.19c-.33,12.49-.67,26.42-.6,29.37.26,11.06-1.37,71.84-1.37,71.84l-30.7.13s5.54-67.88,5.5-71.93c-.06-6.51,1.33-32.64,2.52-53.62,0,0-1.44-4.81-1.35-6.38a63,63,0,0,1,2.82-15.82Z" style="fill:#263238"></path><path d="M523.4,312.49c-4.69-.08-3.34-.12-8-.15-2.3,0-17.38-.07-19.52.29a.05.05,0,0,0,0,.1c2.14.34,17.22.14,19.52.11,4.69-.06,3.34-.1,8-.22A.07.07,0,1,0,523.4,312.49Z" style="fill:#37474f"></path><path d="M505.82,174.78c-.56,17.12-1.15,30.93-1.92,48.05s-1.79,34.35-3.23,51.48c-.8,9.57-1.55,23-2.58,32.59a.05.05,0,1,0,.1,0c2.23-17,3.47-38,4.57-55.09s1.83-34.21,2.41-51.33c.33-9.69.58-16.05.87-25.73C506,174.63,505.83,174.64,505.82,174.78Z" style="fill:#37474f"></path><path d="M507,185.9c.76-.19,1.57-.25,2.34-.37s1.24-.21,1.85-.35a8,8,0,0,0,3.28-1.38c1.53-1.2,3.29-7.26,3.5-7.64.37-.67.48-.08.48,0a35.14,35.14,0,0,1-2.23,7,6.83,6.83,0,0,1-5.21,2.8c-.59.08-1.17.12-1.76.15a12.67,12.67,0,0,1-2.22,0C506.92,186.09,506.88,185.94,507,185.9Z" style="fill:#37474f"></path><path d="M533.75,191.84a54.84,54.84,0,0,0-8.65,4,.1.1,0,0,0,.08.18c2.91-1.25,5.88-2.45,8.72-3.86A.19.19,0,0,0,533.75,191.84Z" style="fill:#37474f"></path><path d="M534.62,171.89c0-.1-.18-.12-.18,0,0,3.46-.2,6.5-.49,9.73-.13,1.5-1.34,9.79-3.94,9.19-.44-.1-.66-.53-.73-1.19a10.5,10.5,0,0,1,.35-2.54c.29-1.74.52-3.48.67-5.23a47.3,47.3,0,0,0-.11-9.81.09.09,0,0,0-.17,0,88.85,88.85,0,0,1-.79,13.54c-.32,2.15-1.41,5.4.85,5.73s3.78-5.1,4.06-6.58A49.75,49.75,0,0,0,534.62,171.89Z" style="fill:#37474f"></path><path d="M530.08,191a13.43,13.43,0,0,0-.59,1.72,4,4,0,0,0-.24,1.41c0,.09.13.1.18,0a5.16,5.16,0,0,0,.6-1.38c.2-.53.41-1.05.59-1.59A.29.29,0,0,0,530.08,191Z" style="fill:#37474f"></path><path d="M531,135.7c4.92,11.74,11.28,24.51,17.76,26.81,6.16,2.19,21-9.62,24.43-16.46.9-1.8-10.29-11.42-12.08-10.24-3.39,2.22-9.78,9.55-10.75,9.27s-8.74-8.52-15.78-15.49C530.33,125.37,527.62,127.56,531,135.7Z" style="fill:#f7a9a0"></path><path d="M567,115.65l-10.25,15.92a.66.66,0,0,0,.26,1.12l9,3a1.53,1.53,0,0,0,1.56-.5l10.25-15.92a.66.66,0,0,0-.26-1.12l-9-3A1.55,1.55,0,0,0,567,115.65Z" style="fill:#37474f"></path><path d="M568,116l-10.25,15.92a.65.65,0,0,0,.26,1.12l9,3a1.53,1.53,0,0,0,1.56-.5l10.25-15.92a.66.66,0,0,0-.26-1.12l-9-3A1.54,1.54,0,0,0,568,116Z" style="fill:#455a64"></path><path d="M570.23,117.62a.81.81,0,0,1-1,.49.8.8,0,0,1-.48-1,.81.81,0,0,1,1-.49A.82.82,0,0,1,570.23,117.62Z" style="fill:#263238"></path><path d="M576.38,136.37c.42-4.83-.22-6.13,2.3-10,1.65-2.55.72-4.7-2-3.15-4.5,2.54-6.35,8.66-6.38,11Z" style="fill:#f7a9a0"></path><path d="M571,149.3s4.12-5.5,5.07-10.6c.66-3.53,1.24-11.36-6.83-18.4-1.91-1.67-5.83-2.7-3.69,1.17,1.52,2.74,3.31,4,3.9,5.78,0,0-5.13-.71-6.73,1.27a46.39,46.39,0,0,0-3.81,5.48,9.29,9.29,0,0,0,1,.81s-1.44,1.9-.9,5.49Z" style="fill:#f7a9a0"></path><path d="M576.19,135.23a28,28,0,0,0-5.72-7.2c-3-2.43-9.33-6.31-11.11-4.1-1.29,1.62,1,3.31,1,3.31s-3-1-3.83.67c-.77,1.57,1.09,2.77,1.09,2.77s-1.92-.32-2.37,1.33c-.55,2,3.54,2.35,4.73,4.84C560.25,137.42,576.19,135.23,576.19,135.23Z" style="fill:#f7a9a0"></path><path d="M568.43,131.59a15.26,15.26,0,0,0-8-4.38c-.08,0-.13,0-.06.07a37.41,37.41,0,0,1,8,4.34S568.44,131.61,568.43,131.59Z" style="fill:#263238"></path><path d="M565.89,134.52a17.12,17.12,0,0,0-8.23-3.9c-.08,0-.13,0-.06.07a40.43,40.43,0,0,1,8.27,3.85S565.9,134.53,565.89,134.52Z" style="fill:#263238"></path><path d="M558.09,137.53l11.23,14.2S555,165.24,549,163.17s-16.15-19.68-19-30.56c-1.94-7.52,2-6,6-2s14.32,13.8,14.82,13.71S558.09,137.53,558.09,137.53Z" style="fill:#455a64"></path><path d="M554.08,162.52c-2,.79-3.75,1.12-5.11.65-6-2.07-16.15-19.68-19-30.55-1.55-6,.66-6.25,3.62-4.09C539.71,138.41,549,153.57,554.08,162.52Z" style="opacity:0.1"></path><path d="M565.12,153.56c-1.64-2-8-10.25-9.29-12.14-.09-.13,0-.22.08-.09a137.15,137.15,0,0,1,9.28,12.16S565.16,153.61,565.12,153.56Z" style="fill:#263238"></path><path d="M540.52,172.27c-.6.6-37.47-1.14-37.64-1.37-.49-.65,11-37.55,18.84-44.75,2.7-2.49,7.26-2.05,9.59-.39.93.66,3.2,5.69,4.37,9.9C538,144.09,541,171.74,540.52,172.27Z" style="fill:#ebebeb"></path><polygon points="528.56 134.9 529.95 131.41 532.37 133.34 531.56 136.28 529.37 136.45 528.56 134.9" style="fill:#263238"></polygon><polygon points="529.37 136.45 527.14 160.9 531.34 169.22 535.63 159.68 531.56 136.28 529.37 136.45" style="fill:#263238"></polygon><path d="M543.55,180.26l-8.58.81s-2.48-7.71-2.58-7.71-1.67,5.52-2.25,7.71c-6.31-.31-30.61-2.67-30.83-2.84s2.93-7.71,3.28-8.83c2.71-8.8,7.55-26.28,11.24-32.78a60.63,60.63,0,0,1,5.63-8.43l.6-.69L521.4,126l11.15,22.87c0-.4.2-21.35.2-21.35A73.1,73.1,0,0,1,538.13,143c2.28,9.85,3,23.5,3.64,30.34C541.77,173.36,543.55,180.12,543.55,180.26Z" style="fill:#455a64"></path><path d="M532.55,148.84a194.77,194.77,0,0,1-.16,24.52,196.67,196.67,0,0,1,.16-24.52Z" style="fill:#263238"></path><path d="M531,170.71a.94.94,0,0,1-1.87,0,.94.94,0,0,1,1.87,0Zm0,0a.69.69,0,0,0-1.37,0,.69.69,0,0,0,1.37,0Z" style="fill:#263238"></path><path d="M531,164.41a.94.94,0,0,1-1.87,0,.94.94,0,0,1,1.87,0Zm0,0a.69.69,0,0,0-1.37,0,.69.69,0,1,0,1.37,0Z" style="fill:#263238"></path><path d="M531,158.1a.94.94,0,0,1-1.87,0,.94.94,0,0,1,1.87,0Zm0,0a.69.69,0,0,0-1.37,0,.69.69,0,0,0,1.37,0Z" style="fill:#263238"></path><path d="M531,151.79a.94.94,0,0,1-1.87,0,.94.94,0,0,1,1.87,0Zm0,0a.69.69,0,0,0-1.37,0,.69.69,0,0,0,1.37,0Z" style="fill:#263238"></path><path d="M532.58,127c.46,0,2.25,1.83,2.44,2.34s4.87,26.08,4.39,29S529.82,186,529.82,186l-3.3-1.47s9.19-25.8,9.49-26.72-3.15-29-3.26-29.72S532.58,127,532.58,127Z" style="fill:#EECD18"></path><path d="M532.58,127c.46,0,2.25,1.83,2.44,2.34s4.87,26.08,4.39,29S529.82,186,529.82,186l-3.3-1.47s9.19-25.8,9.49-26.72-3.15-29-3.26-29.72S532.58,127,532.58,127Z" style="opacity:0.6000000000000001"></path><path d="M521.2,126.28c-.37-.26-2.93,1.85-3.38,2.16s-9.84,18.75-11.09,21.41-11.85,27.67-11.85,27.67l3.56.66s10.48-25.48,10.75-26.41S519.81,128.5,520.31,128A5.8,5.8,0,0,0,521.2,126.28Z" style="fill:#EECD18"></path><path d="M521.2,126.28c-.37-.26-2.93,1.85-3.38,2.16s-9.84,18.75-11.09,21.41-11.85,27.67-11.85,27.67l3.56.66s10.48-25.48,10.75-26.41S519.81,128.5,520.31,128A5.8,5.8,0,0,0,521.2,126.28Z" style="opacity:0.6000000000000001"></path><rect x="493.72" y="175.38" width="28.52" height="45.26" transform="translate(220.88 661.5) rotate(-79.52)" style="fill:#EECD18"></rect><rect x="493.72" y="175.38" width="28.52" height="45.26" transform="translate(220.88 661.5) rotate(-79.52)" style="opacity:0.30000000000000004"></rect><rect x="502.63" y="167.96" width="13.43" height="45.26" transform="translate(229.3 656.78) rotate(-79.52)" style="opacity:0.1"></rect><rect x="486.42" y="179.76" width="47.4" height="13.31" transform="translate(42.41 -89.67) rotate(10.48)" style="fill:#EECD18"></rect><rect x="486.42" y="179.76" width="47.4" height="13.31" transform="translate(42.41 -89.67) rotate(10.48)" style="opacity:0.30000000000000004"></rect><polygon points="518.71 176.32 517.83 181.07 515.68 180.67 516.18 177.97 507.98 176.45 507.48 179.16 505.33 178.76 506.21 174.01 518.71 176.32" style="fill:#263238"></polygon><rect x="491.98" y="186.93" width="3.09" height="6.36" transform="translate(42.81 -86.6) rotate(10.48)" style="fill:#263238"></rect><rect x="522.75" y="192.62" width="3.09" height="6.36" transform="translate(44.35 -92.09) rotate(10.48)" style="fill:#263238"></rect><path d="M514.7,132.21c-3.18,4-15.09,22.14-15.23,26.3-.22,6.32,11.63,25.18,14.67,29.22,1.32,1.76,14.75-9,13.47-11-.86-1.34-12.43-15.39-12.82-17.11s3.77-17.19,6.68-25.14C524.25,126.94,521.42,123.71,514.7,132.21Z" style="fill:#f7a9a0"></path><path d="M542.31,192.87a2.71,2.71,0,0,1-2.73,1.44A4,4,0,0,1,539,197c-1,1.33-3.49.4-3.49.4a5,5,0,0,1-1.1,2.69c-1.06,1.19-3.73.61-3.73.61a4.36,4.36,0,0,1-2.47,1.75c-2.71.61-5.7-2.4-7.61-4.3S515,189,514.14,187.73l12.07-12.42s11,6.07,13,8.62C540.81,186.08,543.21,191,542.31,192.87Z" style="fill:#f7a9a0"></path><path d="M539.69,194c-1.18-2.7-3.11-4.91-4.9-7.21,0-.06-.12,0-.08.06,1.81,2.27,3.15,4.88,4.86,7.22A.07.07,0,0,0,539.69,194Z" style="fill:#263238"></path><path d="M535.59,197.16a7.85,7.85,0,0,0-1.2-1.61c-.47-.54-.94-1.08-1.43-1.6q-1.44-1.57-3-3.08c0-.05-.13,0-.08.06,1,1,1.9,2.11,2.82,3.2l1.36,1.65a9.16,9.16,0,0,0,1.35,1.5A.1.1,0,0,0,535.59,197.16Z" style="fill:#263238"></path><path d="M530.6,200.61a5.69,5.69,0,0,0-1.16-1.39l-1.35-1.42c-.89-1-1.78-1.9-2.63-2.88-.05,0-.13,0-.08.07.86,1,1.71,2,2.59,3l1.29,1.46a5.11,5.11,0,0,0,1.29,1.21S530.61,200.64,530.6,200.61Z" style="fill:#263238"></path><path d="M527.38,174.6l-14.59,13.61S499.47,169.14,499,158.82c-.2-4.25,10.93-21,16-27.45s10.6-8.22,6.78,3.59-6.8,22.44-6.34,23.14S527.38,174.6,527.38,174.6Z" style="fill:#455a64"></path><path d="M524.11,172.62a39.21,39.21,0,0,0-3.17,2.58c-1.08.91-2.13,1.86-3.18,2.8s-5.15,4.83-6.17,5.81c0,0,0,.11.07.07,1.08-.91,5.37-4.52,6.4-5.44s2.06-1.85,3.06-2.8a42.35,42.35,0,0,0,3-3S524.14,172.6,524.11,172.62Z" style="fill:#263238"></path><path d="M513.74,187.32l-.9,1-.06.07a105.74,105.74,0,0,1-8.5-13.71,31.37,31.37,0,0,1-2.1-4.92c.79,1.6,1.69,3.12,2.59,4.65,2.65,4.45,5.59,9.29,8.09,13.81l-.13,0,1-.83Z" style="fill:#263238"></path><path d="M526.47,175.45l.89-.87v0a186.8,186.8,0,0,1-12.06-16,1.59,1.59,0,0,1-.24-.77,28.07,28.07,0,0,1,.93-4.35c1.28-4.83,2.79-9.59,4.44-14.3l-2.53,9.65c-.61,2.57-1.84,6.43-2.1,9,1.53,3,3.89,5.71,5.81,8.55s3.89,5.41,5.8,8.15h0l-.93.84Z" style="fill:#263238"></path><path d="M519.4,142.67c.41-.71.81-1.34,1.22-2.06a3,3,0,0,1-1.22,2.06Z" style="fill:#263238"></path><path d="M521.33,127.53c-.5,2.32-1.08,4.62-1.67,6.92l-.24-.34c1.69,0,3.39.12,5.08.2l.44,0-.13.43c-.55,1.76-1.08,3.53-1.67,5.28l-.1-.37c1.61,1.5,3.24,3,4.81,4.52s3.17,3.07,4.7,4.65c-3.42-2.77-6.72-5.69-10-8.64l-.17-.15.07-.23c.53-1.77,1.12-3.52,1.7-5.27l.3.44c-1.8-.11-3.61-.21-5.41-.37.73-2.37,1.47-4.74,2.28-7.09Z" style="fill:#263238"></path><path d="M534.61,141a21.44,21.44,0,0,1-2.06,7.86,21.75,21.75,0,0,1,2.06-7.86Z" style="fill:#263238"></path><path d="M529.77,131.63c-2.21.42-6.27-3.39-7.63-6.16-.09-.19.29-2.13.63-4.51.2-1.45.39-3.06.46-4.55l9.21,2.69a23.56,23.56,0,0,0-1.16,5.66,3.13,3.13,0,0,0,0,.62v.1C531.46,126.64,531.9,131.23,529.77,131.63Z" style="fill:#f7a9a0"></path><path d="M531.31,125.38s0,.06,0,.1a6.07,6.07,0,0,1-1,0c-5.38-.37-6.35-7-6.51-8.89l2.3.67,6.29,1.83a23.7,23.7,0,0,0-1.16,5.67A3.08,3.08,0,0,0,531.31,125.38Z" style="fill:#263238"></path><path d="M531.29,125l-1.76,5.6-7.28-6.35-1.74,2.35S528,137,528,136.46l1.88-4.86,3.48,3-.89-8.15Z" style="fill:#ebebeb"></path><path d="M533.1,130.56c-.2-1.35-.35-2.7-.61-4,0,0-.08-.07-.09,0-.17,1.32.59,6.45.68,7.68h0c-.15-.13-3.22-2.63-3.24-2.59-.43.78-1.81,4.32-1.9,4.64-1.17-1.66-5.66-7.65-7-9.19a0,0,0,0,0-.08,0c1.06,1.76,7,9.84,7.09,9.81a51.91,51.91,0,0,0,2-5.13,35,35,0,0,0,3.65,3.21A43.69,43.69,0,0,0,533.1,130.56Z" style="fill:#263238"></path><path d="M521.39,106.58c-.69,3.47,2.07,13,4.68,14.91,3.78,2.79,9.48,2.51,11.72-1.92s-1.64-16.65-4.5-18.34C529.06,98.73,522.4,101.47,521.39,106.58Z" style="fill:#f7a9a0"></path><path d="M531.65,111.51s0,0,0,.07c.2.63.33,1.4-.19,1.77,0,0,0,.05,0,0C532.12,113.09,532,112.08,531.65,111.51Z" style="fill:#263238"></path><path d="M530.89,111c-1.06.21-.55,2.31.43,2.11S531.77,110.82,530.89,111Z" style="fill:#263238"></path><path d="M535.25,110.57s0,0,.06.05c.14.65.4,1.38,1,1.45,0,0,0,0,0,0C535.61,112.18,535.27,111.21,535.25,110.57Z" style="fill:#263238"></path><path d="M535.66,109.75c1-.33,1.61,1.75.67,2S534.8,110,535.66,109.75Z" style="fill:#263238"></path><path d="M529.93,110.6a7.2,7.2,0,0,0,.74-.48c.28-.19.53-.31.66-.64a.44.44,0,0,0-.2-.52,1.14,1.14,0,0,0-1.13.16,1.63,1.63,0,0,0-.76.93A.48.48,0,0,0,529.93,110.6Z" style="fill:#263238"></path><path d="M536.25,108.75a6.46,6.46,0,0,1-.88,0,1.43,1.43,0,0,1-.91-.17.46.46,0,0,1-.11-.54,1.12,1.12,0,0,1,1-.49,1.7,1.7,0,0,1,1.15.36A.48.48,0,0,1,536.25,108.75Z" style="fill:#263238"></path><path d="M532,117.64a1,1,0,0,0,.64.25,1.71,1.71,0,0,0,.66-.33s0,0,0,0a.89.89,0,0,1-.74.55.72.72,0,0,1-.65-.45S532,117.63,532,117.64Z" style="fill:#263238"></path><path d="M532.25,115.53a2.25,2.25,0,0,0,1.71.63,2.84,2.84,0,0,0,.81-.16l.14,0,.14-.06a.18.18,0,0,0,.1-.17h0a.14.14,0,0,0,0-.06h0v0c-.11-.51-.34-1.26-.34-1.26.2,0,1.23.24,1.16,0a34.63,34.63,0,0,0-2.48-6.48.06.06,0,0,0-.12,0c.55,2.07,1.46,4,2,6.11a4.4,4.4,0,0,0-1.12-.07c-.07,0,.47,1.44.5,1.67a0,0,0,0,1,0,0,3.14,3.14,0,0,1-2.46-.16C532.24,115.44,532.2,115.49,532.25,115.53Z" style="fill:#263238"></path><path d="M523.88,114.26c1.83-.18,1.39-3.34,1.39-3.34s3.58-1,3.44-5.7c0,0,5.46,1.25,7.89-1.77s-5.55-9-13.27-1.67c0,0-3.91,1.12-4.16,4.45S521.68,114.47,523.88,114.26Z" style="fill:#263238"></path><path d="M528.53,104.7a0,0,0,0,0-.09,0c.94,3-.75,6.11-4.1,6.26a.09.09,0,0,0,0,.18C527.69,111.35,530.37,107.73,528.53,104.7Z" style="fill:#263238"></path><path d="M530.8,98.26s0,0,0,0a11.32,11.32,0,0,1,3.38.47c1.62.56,3.85,2.23,3,4.22-1.21,2.73-5.15,2.46-7.59,2.1a.13.13,0,0,0-.06.25c2.5.8,7.48.56,8.15-2.69C538.39,99,533.27,98.05,530.8,98.26Z" style="fill:#263238"></path><path d="M530.8,115.62a2.94,2.94,0,1,1,2.37-4h0a3,3,0,0,1-1.66,3.82A3.09,3.09,0,0,1,530.8,115.62Zm-.69-5.45a2.27,2.27,0,0,0-.62.16,2.55,2.55,0,1,0,.62-.16Z" style="fill:#EECD18"></path><path d="M537.35,114a2.74,2.74,0,0,1-2.65-2.36,3.62,3.62,0,0,1,.11-2.15,1.84,1.84,0,0,1,3.05-.76,3.51,3.51,0,0,1,1.1,1.85c.39,1.58-.24,3.1-1.42,3.39Zm-1-5.4-.15,0a1.54,1.54,0,0,0-1,1,3.08,3.08,0,0,0-.09,1.91c.33,1.37,1.39,2.28,2.36,2s1.47-1.54,1.13-2.91a3.16,3.16,0,0,0-1-1.64A1.65,1.65,0,0,0,536.37,108.56Z" style="fill:#EECD18"></path><path d="M533.15,112l-.31-.24c.34-.47,1.22-1.21,2.1-.63l-.21.33C533.94,110.92,533.19,111.93,533.15,112Z" style="fill:#EECD18"></path><path d="M520.6,115.87l-.39-.09c0-.18.44-1.76,1.26-2.11s6-1.11,6.24-1.15l0,.39c-1.5.23-5.54.87-6.13,1.12S520.7,115.44,520.6,115.87Z" style="fill:#EECD18"></path><path d="M524.78,114.1s-2.47-2.95-3.83-2,.68,5.32,2.41,5.8a1.7,1.7,0,0,0,2.2-1.11Z" style="fill:#f7a9a0"></path><path d="M521.57,113.3s0,0,0,0a4.3,4.3,0,0,1,2.46,2.5,1,1,0,0,0-1.43-.14s0,.07,0,.06a1.05,1.05,0,0,1,1.18.27,5.1,5.1,0,0,1,.63.89c.06.1.25,0,.2-.09v0C524.53,115.31,523.19,113.32,521.57,113.3Z" style="fill:#263238"></path><path d="M750,208.63v11.45l-.12.07L728.1,233.57,709,245.36l-21.34,13.15-6.8,4.19-2.51,1.55-10.39,6.4-20.77,12.8L634.83,291l-7.94,4.89-20.21,12.46h0l-12.8,7.89-8,4.94-19.64,12.1-21.4,13.19-19.07,11.75H457.18c-.23,0-.47,0-.7,0h-.32l-.39,0-.69,0-.69-.06c-.34,0-.67-.07-1-.12l-.53-.08c-.4-.06-.79-.13-1.18-.21-.57-.11-1.13-.25-1.68-.4l-.46-.13c-.3-.08-.59-.17-.88-.27l-.51-.16-.11,0c-.24-.09-.48-.17-.72-.27l-.54-.21-.78-.34c-.12,0-.23-.1-.35-.15a26.18,26.18,0,0,1-4.41-2.57l-.14-.09a2.94,2.94,0,0,1-.41-.31l-.33-.25a26.77,26.77,0,0,1-10.47-21.22V307.56a22.54,22.54,0,0,1,18.24-22c.51-.11,1-.19,1.55-.25a20.49,20.49,0,0,1,2.95-.2h67.59a20.47,20.47,0,0,0,10.45-3l25.26-15.53,10-6.16,127.17-78.22L734,157l15.85-9.76v61.43Z" style="fill:#ebebeb;opacity:0.2"></path><g style="opacity:0.4"><path d="M520.22,285.08l-54.13,73.18h-8.91a27.42,27.42,0,0,1-11.53-2.52l52.28-70.65h22.29Z" style="fill:#fff"></path><polygon points="734.03 156.96 634.83 291.04 593.86 316.29 693.11 182.13 734.03 156.96" style="fill:#fff"></polygon><polygon points="565.94 260.35 493.5 358.26 488.05 358.26 555.93 266.51 565.94 260.35" style="fill:#fff"></polygon><polygon points="750 219.99 750 220.08 749.88 220.15 750 219.99" style="fill:#fff"></polygon><path d="M491.61,285.09l-50.38,68.09c-.3-.21-.59-.43-.87-.65l49.89-67.44Z" style="fill:#fff"></path><polygon points="749.88 167.5 749.88 169.35 720.82 208.63 708.96 224.66 702.37 233.57 696.83 241.06 683.92 258.51 680.82 262.7 678.31 264.25 682.56 258.51 694.35 242.57 701.01 233.57 708.96 222.82 719.46 208.63 749.88 167.5" style="fill:#fff"></polygon><path d="M449.68,285.28,429.89,312v-1.84l18.24-24.65C448.64,285.42,449.16,285.34,449.68,285.28Z" style="fill:#fff"></path></g><path d="M749.88,144.69v5l-19.26,11.86-40.93,25.17L562.52,265l-10,6.15-20.69,12.73a22.71,22.71,0,0,1-11.9,3.37H452.63a20,20,0,0,0-4.81.57,15,15,0,0,0-1.74.5,20.37,20.37,0,0,0-14,18.93c0,.11,0,.22,0,.33v24.3a22,22,0,0,0,10,18.39l.92.59A22.72,22.72,0,0,0,454.42,354h17.39v4.28H454.42a26.56,26.56,0,0,1-26.69-26.38v-24.3A24.78,24.78,0,0,1,452.63,283h67.29a18.4,18.4,0,0,0,9.61-2.72Z" style="fill:#263238"></path><rect x="503.77" y="333.32" width="41.04" height="24.94" style="fill:#c7c7c7"></rect><rect x="544.81" y="308.39" width="41.04" height="24.94" style="fill:#c7c7c7"></rect><rect x="585.85" y="283.45" width="41.04" height="24.94" style="fill:#c7c7c7"></rect><rect x="626.89" y="258.51" width="41.04" height="24.94" style="fill:#c7c7c7"></rect><rect x="667.92" y="233.57" width="41.04" height="24.94" style="fill:#c7c7c7"></rect><rect x="708.96" y="208.63" width="41.04" height="24.94" style="fill:#c7c7c7"></rect><rect x="708.96" y="208.63" width="41.04" height="24.94" style="fill:#c7c7c7"></rect><rect x="471.81" y="353.94" width="32.19" height="4.32" style="fill:#c7c7c7"></rect><polygon points="750 208.74 750 233.57 749.88 233.57 749.88 233.7 626.89 308.39 585.85 333.32 544.81 358.25 544.81 358.26 504 358.26 544.81 333.46 545.03 333.32 585.85 308.51 586.05 308.39 610.86 293.31 626.89 283.57 627.08 283.45 651.36 268.69 651.37 268.68 667.92 258.63 668.12 258.51 694.35 242.57 696.83 241.06 708.96 233.69 709.15 233.57 749.88 208.82 750 208.74" style="fill:#c7c7c7"></polygon><polygon points="750 220.08 750 233.57 749.88 233.57 749.88 358.26 525.74 358.26 544.81 346.51 566.21 333.32 585.85 321.22 593.87 316.28 606.67 308.39 606.68 308.39 626.89 295.93 634.83 291.04 647.15 283.45 667.92 270.65 678.31 264.25 680.82 262.7 687.62 258.51 708.96 245.36 728.1 233.57 749.88 220.15 750 220.08" style="fill:#ebebeb"></polygon><rect x="749.88" y="208.63" width="0.12" height="24.94" style="fill:#c7c7c7"></rect></g><g id="freepik--Screen--inject-64"><polygon points="334.04 98.44 153.54 98.44 151.45 19.85 336.61 19.85 334.04 98.44" style="fill:#EECD18"></polygon><polygon points="330.43 95.08 157.15 95.08 155.82 23.2 332.24 23.2 330.43 95.08" style="fill:#263238"></polygon><rect x="164.55" y="31.07" width="77.3" height="1.29" style="fill:#EECD18"></rect><rect x="247.8" y="31.07" width="25.47" height="1.29" style="fill:#EECD18"></rect><rect x="278.91" y="31.07" width="25.47" height="1.29" style="fill:#EECD18"></rect><rect x="310.24" y="31.07" width="13.27" height="1.29" style="fill:#EECD18"></rect><rect x="164.55" y="37.92" width="77.3" height="1.29" style="fill:#fff"></rect><rect x="247.8" y="37.92" width="25.47" height="1.29" style="fill:#fff"></rect><rect x="278.91" y="37.92" width="25.47" height="1.29" style="fill:#fff"></rect><rect x="310.24" y="37.92" width="13.27" height="1.29" style="fill:#fff"></rect><rect x="164.55" y="44.78" width="77.3" height="1.29" style="fill:#fff"></rect><rect x="247.8" y="44.78" width="25.47" height="1.29" style="fill:#fff"></rect><rect x="278.91" y="44.78" width="25.47" height="1.29" style="fill:#fff"></rect><rect x="310.24" y="44.78" width="13.27" height="1.29" style="fill:#fff"></rect><rect x="164.55" y="51.64" width="77.3" height="1.29" style="fill:#fff"></rect><rect x="247.8" y="51.64" width="25.47" height="1.29" style="fill:#fff"></rect><rect x="278.91" y="51.64" width="25.47" height="1.29" style="fill:#fff"></rect><rect x="310.24" y="51.64" width="13.27" height="1.29" style="fill:#fff"></rect><rect x="164.55" y="58.5" width="77.3" height="1.29" style="fill:#fff"></rect><rect x="247.8" y="58.5" width="25.47" height="1.29" style="fill:#fff"></rect><rect x="278.91" y="58.5" width="25.47" height="1.29" style="fill:#fff"></rect><rect x="310.24" y="58.5" width="13.27" height="1.29" style="fill:#fff"></rect><rect x="164.55" y="65.36" width="77.3" height="1.29" style="fill:#fff"></rect><rect x="247.8" y="65.36" width="25.47" height="1.29" style="fill:#fff"></rect><rect x="278.91" y="65.36" width="25.47" height="1.29" style="fill:#fff"></rect><rect x="310.24" y="65.36" width="13.27" height="1.29" style="fill:#fff"></rect><rect x="164.55" y="72.21" width="77.3" height="1.29" style="fill:#fff"></rect><rect x="247.8" y="72.21" width="25.47" height="1.29" style="fill:#fff"></rect><rect x="278.91" y="72.21" width="25.47" height="1.29" style="fill:#fff"></rect><rect x="310.24" y="72.21" width="13.27" height="1.29" style="fill:#fff"></rect><rect x="164.55" y="79.07" width="77.3" height="1.29" style="fill:#fff"></rect><rect x="247.8" y="79.07" width="25.47" height="1.29" style="fill:#fff"></rect><rect x="278.91" y="79.07" width="25.47" height="1.29" style="fill:#fff"></rect><rect x="310.24" y="79.07" width="13.27" height="1.29" style="fill:#fff"></rect><rect x="164.55" y="85.93" width="77.3" height="1.29" style="fill:#fff"></rect><rect x="247.8" y="85.93" width="25.47" height="1.29" style="fill:#fff"></rect><rect x="278.91" y="85.93" width="25.47" height="1.29" style="fill:#fff"></rect><rect x="310.24" y="85.93" width="13.27" height="1.29" style="fill:#fff"></rect><rect x="183.4" width="6.22" height="19.85" style="fill:#dbdbdb"></rect><rect x="298.45" width="6.22" height="19.85" style="fill:#dbdbdb"></rect></g><g id="freepik--character-2--inject-64"><path d="M142.64,351.48c-1.5-.54-35.37-27.49-36-29.33-.26-.7,25.84-33.79,25.84-33.79l20.79,17-16.79,22.17s8.36,16.11,8.84,18.22S144.14,352,142.64,351.48Z" style="fill:#ad6359"></path><path d="M139.86,333.85c-.07-.1-.1-.16-.08-.19S139.81,333.72,139.86,333.85Z" style="fill:#EECD18"></path><path d="M142.64,351.48c-1.5-.54-35.37-27.49-36-29.34-.22-.61,2.63-4.77,6.48-10,5.25,6.16,25.74,29.9,28,28.34.89-.62-.09-3.64-.79-5.45,2.27,4.49,4.73,9.53,5,10.65C145.8,347.8,144.14,352,142.64,351.48Z" style="fill:#263238"></path><path d="M121.71,302.11l21.48,17.18s35.54-41.94,36.84-48.24c1.48-7.16,5.6-63.25,5.51-66-.12-3.39-3.85-18.29-3.85-18.29H155.06s-3.72,73.35-4.5,75.62C149.73,264.79,121.71,302.11,121.71,302.11Z" style="fill:#EECD18"></path><path d="M121.71,302.11l21.48,17.18s35.54-41.94,36.84-48.24c1.48-7.16,5.6-63.25,5.51-66-.12-3.39-3.85-18.29-3.85-18.29H155.06s-3.72,73.35-4.5,75.62C149.73,264.79,121.71,302.11,121.71,302.11Z" style="fill:#fff;opacity:0.7000000000000001"></path><path d="M145.28,313.73c-3.43-3.31-16.82-13.94-18.48-14.81,0,0-.09,0-.06.07,1.21,1.44,12.6,10.79,18.46,14.85C145.26,313.89,145.34,313.79,145.28,313.73Z" style="fill:#EECD18"></path><path d="M183,197.75a8.61,8.61,0,0,0-1.09-.26,6.44,6.44,0,0,1-1.12-.43,8.28,8.28,0,0,1-2.05-1.45,7.74,7.74,0,0,1-1.58-2.53c-.23-.54-1.32-3.4-1.33-3.42s-.11,0-.1.05c.08.39.83,2.86,1,3.47a8.07,8.07,0,0,0,1.64,2.95,6.65,6.65,0,0,0,2.27,1.53,5.16,5.16,0,0,0,1.22.33,1.94,1.94,0,0,0,1.12-.07C183.1,197.89,183.06,197.77,183,197.75Z" style="fill:#EECD18"></path><path d="M159.45,188l-.56,14.73-.63,14.73-1.42,29.45c-.27,4.91-.53,9.81-.84,14.72,0,.61-.08,1.23-.14,1.87a1,1,0,0,1-.06.28,2.42,2.42,0,0,1-.12.23,4.06,4.06,0,0,1-.25.41c-.17.27-.34.52-.52.78-.71,1-1.45,2-2.2,3-1.48,2-3,3.88-4.54,5.81q-4.59,5.76-9.26,11.47l-9.39,11.37,9.16-11.56q4.57-5.77,9.12-11.58c1.5-1.94,3-3.88,4.48-5.84.74-1,1.48-2,2.18-3,.17-.25.34-.5.5-.76s.36-.5.34-.72c.06-.59.1-1.19.13-1.81.29-4.9.54-9.81.78-14.71l1.56-29.45.81-14.72Z" style="fill:#EECD18"></path><path d="M180.57,267.15c-.2,1.8-.38,3.15-.53,3.9-.74,3.54-12.27,18.32-22.24,30.6l-6.84-43c1.22-15.26,4.1-71.93,4.1-71.93h13.27Z" style="fill:#EECD18"></path><path d="M220,350.65c-1.4.77-44,8.43-45.81,7.69-.69-.27-8.32-41.71-8.32-41.71l26.46-4.43,5.58,27.24s17.62,4.36,19.52,5.39S221.36,349.89,220,350.65Z" style="fill:#ad6359"></path><path d="M204.87,341.1c-.12,0-.18,0-.2-.06Z" style="fill:#EECD18"></path><path d="M220,350.65c-1.4.77-44,8.43-45.81,7.69-.61-.24-1.85-5.12-3.22-11.45,8.1.12,39.46.4,39.78-2.34.13-1.08-2.79-2.34-4.61-3,4.87,1.26,10.28,2.74,11.29,3.29C219.27,345.85,221.36,349.89,220,350.65Z" style="fill:#263238"></path><path d="M178.43,186.72s-.7,11.38-3.84,19.49c0,0-4.54,2.83-5,3.27l27,121.54-27.66,5.37S158,277.51,157.1,273.48c-1.48-6.48-13.23-61.58-13.75-64.71-1.09-6.55,5-22.05,5-22.05Z" style="fill:#EECD18"></path><path d="M178.43,186.72s-.7,11.38-3.84,19.49c0,0-4.54,2.83-5,3.27l27,121.54-27.66,5.37S158,277.51,157.1,273.48c-1.48-6.48-13.23-61.58-13.75-64.71-1.09-6.55,5-22.05,5-22.05Z" style="fill:#fff;opacity:0.7000000000000001"></path><path d="M193.73,324.94c-7.6,1.14-22.15,4.23-23.94,5,0,0,0,.09,0,.09,1.94,0,19.66-3.54,23.95-4.92C193.84,325.06,193.81,324.93,193.73,324.94Z" style="fill:#EECD18"></path><path d="M151.71,197.75c.56-.12,1.15-.08,1.71-.16a11.49,11.49,0,0,0,1.75-.33,12.71,12.71,0,0,0,3.15-1.28,6.84,6.84,0,0,0,2.29-2.43c.32-.52,1.79-3.31,1.8-3.33s.18,0,.16.05a35.09,35.09,0,0,1-1.34,3.43,6.65,6.65,0,0,1-2.35,2.84,10.45,10.45,0,0,1-3.49,1.34,11.41,11.41,0,0,1-1.93.22,5.07,5.07,0,0,1-1.78-.17C151.58,197.89,151.63,197.77,151.71,197.75Z" style="fill:#EECD18"></path><path d="M175.24,205.91a46.44,46.44,0,0,0-7.29,3.31c-.09.05,0,.2.07.15,2.45-1,5-2,7.35-3.17A.16.16,0,0,0,175.24,205.91Z" style="fill:#EECD18"></path><path d="M176.17,189.13c0-.09-.15-.11-.15,0,0,2.91-.21,5.46-.48,8.17-.13,1.26-1.21,8.22-3.39,7.69-.36-.09-.55-.45-.6-1a9.06,9.06,0,0,1,.31-2.13c.26-1.46.47-2.92.6-4.39a39.81,39.81,0,0,0,0-8.24.07.07,0,1,0-.14,0,75.74,75.74,0,0,1-.77,11.36c-.29,1.81-1.23,4.53.67,4.83s3.21-4.26,3.46-5.51A41.34,41.34,0,0,0,176.17,189.13Z" style="fill:#EECD18"></path><path d="M172.21,205.16a10.21,10.21,0,0,0-.5,1.44,3.24,3.24,0,0,0-.22,1.18.09.09,0,0,0,.15,0,4.42,4.42,0,0,0,.52-1.15c.17-.45.35-.89.51-1.34A.25.25,0,0,0,172.21,205.16Z" style="fill:#EECD18"></path><path d="M150.58,186.72c-.76,2.89-1.47,5.78-2.12,8.69s-1.27,5.84-1.63,8.79l-.1,1.1c0,.37,0,.74,0,1.1l.33,2.19.83,4.4,1.78,8.76L157,256.8l7.31,35,3.64,17.53,3.58,17.53-3.88-17.47-3.81-17.49-7.46-35c-2.42-11.69-4.86-23.37-7.17-35.08l-1.7-8.79-.79-4.41-.31-2.24a18.62,18.62,0,0,1,.16-2.25c.42-3,1.09-5.88,1.79-8.78S149.77,189.59,150.58,186.72Z" style="fill:#EECD18"></path><path d="M176.89,122.57s-1.66-2.87-4.21-2.87-3,1.59-4.6,1.71-4.8-.64-6.58.75-1.46,4.58-2.29,5.45-3.34.79-4.12,3.08c-.91,2.65.63,4.42.43,5.82-.34,2.32-2.13,4.06-1.09,6.9,1.12,3.06,3.69,3.22,5.28,4.32s1.58,4.18,5.18,4.71,4.75-1.69,6.94-2.32,5.11,1,7.51-.29,1.88-3.6,2.61-4.7,2.56-1,3.44-3-.75-4-.82-4.77c-.12-1.39.88-2.05.72-4s-2.4-3.53-2.81-4.17c-1-1.52.38-4.4-1.33-5.86A4,4,0,0,0,176.89,122.57Z" style="fill:#263238"></path><path d="M160.41,123.73c-.23,1.44-.4,3.19-1.88,3.92-2.06.8-4.19,2.24-3.93,4.69,0,1.41,1.09,2.69,1,4.23A5.93,5.93,0,0,1,155,138c-.78,1.7-1.37,3.57-.6,5.39-1.17-1.64-.8-3.92-.11-5.68.08-.23.28-.78.35-1a2.26,2.26,0,0,0-.23-1.45c-1.55-3-1-6.43,2.46-7.73.85-.37,1.79-.48,2.37-1.25a11.57,11.57,0,0,0,1.14-2.57Z" style="fill:#263238"></path><path d="M177.36,150.35c2.53-.39,3.86-1,4.24-3.59a3.35,3.35,0,0,1,.72-1.75c1.29-1,2.91-1.54,3.12-3.19.4-1.27-.29-2.65-.76-4a14.37,14.37,0,0,1,1.16,1.88,4,4,0,0,1-.64,4.47,28.35,28.35,0,0,1-2.3,1.68c-1,3.36-1.56,4.9-5.54,4.52Z" style="fill:#263238"></path><path d="M179.73,153.6c7,6.86,28.31,38.51,30,40.65,2.19,2.83-13.67,10.66-15,8.57-.84-1.37-18.81-37.12-20.32-46C173.08,148.93,177.05,151,179.73,153.6Z" style="fill:#ad6359"></path><path d="M201.88,207.89c-.86-.59-1.18-.14-.62,1.64s4.25,8.35,1.85,9.45-7.49-8.25-8.19-11.28a50,50,0,0,1-.76-8.19C195.52,201.13,199.18,204.75,201.88,207.89Z" style="fill:#ad6359"></path><path d="M206.88,190.75c3.85,4.71,8.72,10.48,9.58,17.15a3.32,3.32,0,0,1-.39,2.14c.44,3-.84,4.08-.84,4.08-.44,2.9-1.9,3.85-1.9,3.85s.48,3.5-1.59,4.14c-2.32.73-2.54-4.34-4.36-7.05-4.17-6.21-11.84-13.87-13.22-15.55Z" style="fill:#ad6359"></path><path d="M207.59,205.48a47.77,47.77,0,0,1,3.34,5.64,48,48,0,0,1,2.33,6.81.06.06,0,1,0,.11,0,25.5,25.5,0,0,0-5.7-12.48C207.6,205.34,207.53,205.39,207.59,205.48Z" style="fill:#263238"></path><path d="M211,202.42a35.32,35.32,0,0,1,4.19,11.72s0,0,0,0a22.78,22.78,0,0,0-4.14-11.76C211,202.25,210.9,202.29,211,202.42Z" style="fill:#263238"></path><path d="M212.82,200.8a35.78,35.78,0,0,1,3.23,9.23s0,0,0,0a21.25,21.25,0,0,0-3.17-9.29C212.86,200.61,212.75,200.68,212.82,200.8Z" style="fill:#263238"></path><path d="M192.24,197.91c-5.2-10.38-16.62-34.08-17.81-41.06-1-5.78.86-6.25,3-5.07Z" style="fill:#020100;opacity:0.1"></path><path d="M182.65,176.07l-1,10.57H148.13s9.55-26.4,19.06-35.31c3.79-3.55,7.3-2.5,10,.22.61.62,8,12.8,8.61,17.16C186.29,172.28,182.65,176.07,182.65,176.07Z" style="fill:#263238"></path><path d="M178,174.07a27,27,0,0,0-5,.6c-.82.2-1.64.44-2.46.7q-.62.19-1.23.36a4.43,4.43,0,0,1-1.29.19s-.05.08,0,.08a5.69,5.69,0,0,0,2.42-.1c.84-.18,1.67-.42,2.51-.62,1.7-.4,3.39-.79,5.09-1C178.06,174.23,178.06,174.06,178,174.07Z" style="fill:#455a64"></path><path d="M181.9,176.34a27,27,0,0,0-4.09-.63,20.42,20.42,0,0,0-2.07,0l-1,.06c-.37,0-.73.12-1.09.14,0,0,0,.07,0,.07.34,0,.68.07,1,.09l1,.05c.68,0,1.37.09,2.06.12,1.38.07,2.75.15,4.12.27C182,176.49,182,176.35,181.9,176.34Z" style="fill:#455a64"></path><path d="M169.53,150.88c.27.62,4.14,4.25,7.07,3.56,1-.22,0-5.49,0-5.49v-.41l.21-5.68-7.17-2.92-1-.37s0,1.56.13,3.5a2.44,2.44,0,0,0,0,.27v.32c0,.29,0,.58,0,.88s0,.44,0,.68,0,.46,0,.7A35.34,35.34,0,0,0,169.53,150.88Z" style="fill:#ad6359"></path><path d="M168.71,143.07a11.37,11.37,0,0,0,7.86,5.47l.21-5.68-7.17-2.92-1-.37S168.63,141.13,168.71,143.07Z" style="fill:#263238"></path><path d="M183,133.12c2.35,9.69-3.19,12.19-5.28,12.7-1.9.46-8.42,1.77-11.76-7.63s.43-13.55,4.71-14.83S180.69,123.42,183,133.12Z" style="fill:#ad6359"></path><path d="M180.46,131.27c-.23,0-.45,0-.69,0a1.13,1.13,0,0,1-.7-.12.34.34,0,0,1-.1-.42.86.86,0,0,1,.79-.4,1.3,1.3,0,0,1,.9.25A.38.38,0,0,1,180.46,131.27Z" style="fill:#263238"></path><path d="M174.09,132.88c.22-.08.41-.19.62-.29a1.14,1.14,0,0,0,.58-.43.36.36,0,0,0-.11-.42.89.89,0,0,0-.89,0,1.35,1.35,0,0,0-.68.63A.38.38,0,0,0,174.09,132.88Z" style="fill:#263238"></path><path d="M176,135s0,0,0,.07c.2.65.31,1.43-.22,1.8,0,0,0,.05,0,0C176.43,136.63,176.27,135.6,176,135Z" style="fill:#263238"></path><path d="M175.21,134.49c-1.08.2-.6,2.34.4,2.15S176.11,134.32,175.21,134.49Z" style="fill:#263238"></path><path d="M174.81,134.7c-.16.16-.29.41-.51.49a.83.83,0,0,1-.72-.27s0,0,0,0c.09.41.34.79.8.76s.62-.47.63-.9C175,134.73,174.88,134.63,174.81,134.7Z" style="fill:#263238"></path><path d="M179.77,134s.06,0,.07,0c.12.67.37,1.41,1,1.5,0,0,0,0,0,0C180.11,135.64,179.78,134.65,179.77,134Z" style="fill:#263238"></path><path d="M180.21,133.17c1-.31,1.6,1.81.63,2.1S179.33,133.43,180.21,133.17Z" style="fill:#263238"></path><path d="M180.69,133.19c.2.07.42.24.62.2s.35-.32.44-.58c0,0,0,0,0,0,.12.41.09.86-.28,1s-.69-.11-.89-.49C180.58,133.3,180.61,133.17,180.69,133.19Z" style="fill:#263238"></path><path d="M177.4,140.28c.19.12.38.31.63.29a1.77,1.77,0,0,0,.69-.3,0,0,0,0,1,0,0,.89.89,0,0,1-.78.51.71.71,0,0,1-.63-.49S177.37,140.26,177.4,140.28Z" style="fill:#263238"></path><path d="M179.59,137.23s.37,1,.48,1.42c0,0-.09.09-.25.14h0a2.28,2.28,0,0,1-2.34-.31c-.05,0,0-.1,0-.08a3.47,3.47,0,0,0,2.16.09c0-.13-.69-1.61-.62-1.63a4.07,4.07,0,0,1,1.11,0c-.71-2-1.75-3.88-2.43-5.9,0-.07.08-.12.11-.06a34.64,34.64,0,0,1,2.89,6.25C180.84,137.38,179.79,137.26,179.59,137.23Z" style="fill:#263238"></path><path d="M179.38,138.7a2.39,2.39,0,0,1-.77,1,1.12,1.12,0,0,1-.63.2c-.5,0-.61-.44-.61-.82a2.59,2.59,0,0,1,.08-.61A3.12,3.12,0,0,0,179.38,138.7Z" style="fill:#263238"></path><path d="M178.61,139.65a1.12,1.12,0,0,1-.63.2c-.5,0-.61-.44-.61-.82A1.12,1.12,0,0,1,178.61,139.65Z" style="fill:#ff9cbd"></path><path d="M166.44,139.85c1.68-.38,1-3.94,1-3.94s3.34-1,3-6.14a7.71,7.71,0,0,1-.27,4.42s5.7-2.41,6.68-8.09a13.43,13.43,0,0,1-.88,4,7.14,7.14,0,0,0,2.85-3.81,15.85,15.85,0,0,0,2.93,3.08s-3.37-10.23-12.58-6.23c0,0-5.86,2.21-6.56,7.59S166.44,139.85,166.44,139.85Z" style="fill:#263238"></path><polygon points="168.76 135.84 165.53 134.65 165.28 135.53 168.61 136.34 168.76 135.84" style="fill:#EECD18"></polygon><polygon points="168.59 136.71 165.2 136.11 165.11 137.02 168.53 137.22 168.59 136.71" style="fill:#EECD18"></polygon><path d="M167.72,138.56s-2.62-2.75-3.9-1.77,1,5.2,2.75,5.56a1.69,1.69,0,0,0,2.1-1.24Z" style="fill:#ad6359"></path><path d="M164.51,138a0,0,0,1,0,0,0,4.29,4.29,0,0,1,2.58,2.31.93.93,0,0,0-1.42,0s0,.06,0,0a1,1,0,0,1,1.18.19,4.18,4.18,0,0,1,.68.83c.07.09.25,0,.19-.1v0C167.56,139.77,166.1,137.89,164.51,138Z" style="fill:#263238"></path><path d="M135.25,223.89l26.2,3.62c7.08,1,6.73-4.85,5.85-11s-2.15-15.53-8.48-16.4l-6.8-.94-6.81-.94c-6.32-.88-10.08,7.79-12.6,13.5S128.17,222.91,135.25,223.89Z" style="fill:#EECD18"></path><path d="M159.83,200.23a.27.27,0,0,1,.23.31.27.27,0,0,1-.3.23.28.28,0,0,1-.24-.31A.27.27,0,0,1,159.83,200.23Zm-4.77-.38a.27.27,0,0,0,.23.31.28.28,0,0,0,.31-.24.29.29,0,0,0-.24-.31A.28.28,0,0,0,155.06,199.85Zm-4.47-.62a.28.28,0,0,0,.23.31.27.27,0,1,0-.23-.31Zm-4.46-.61a.27.27,0,0,0,.23.3.27.27,0,0,0,.31-.23.28.28,0,0,0-.24-.31A.27.27,0,0,0,146.13,198.62Zm17.07,8.2a.27.27,0,0,0,.23.31.27.27,0,1,0,.07-.54A.26.26,0,0,0,163.2,206.82Zm-4.47-.62A.27.27,0,1,0,159,206,.27.27,0,0,0,158.73,206.2Zm-4.47-.61a.29.29,0,0,0,.24.31.28.28,0,0,0,.31-.24.29.29,0,0,0-.24-.31A.28.28,0,0,0,154.26,205.59ZM149.8,205a.27.27,0,1,0,.31-.23A.27.27,0,0,0,149.8,205Zm-4.47-.62a.28.28,0,0,0,.24.31.27.27,0,0,0,.07-.54A.28.28,0,0,0,145.33,204.35Zm-4.46-.61a.27.27,0,0,0,.23.31.28.28,0,0,0,.31-.24.27.27,0,0,0-.54-.07Zm20.5-.17a.27.27,0,0,0,.23.31.28.28,0,0,0,.31-.24.26.26,0,0,0-.23-.3A.27.27,0,0,0,161.37,203.57ZM156.9,203a.28.28,0,0,0,.24.31.27.27,0,0,0,.07-.54A.27.27,0,0,0,156.9,203Zm-4.46-.61a.27.27,0,0,0,.54.07.27.27,0,0,0-.23-.31A.28.28,0,0,0,152.44,202.34Zm-4.47-.62a.28.28,0,0,0,.24.31.27.27,0,1,0-.24-.31Zm-4.46-.62a.27.27,0,0,0,.54.08.28.28,0,0,0-.23-.31A.27.27,0,0,0,143.51,201.1Zm-4.45-.47a.28.28,0,0,0,.22.17.28.28,0,0,0,.3-.24.27.27,0,0,0-.15-.28Zm23.34,11.93a.28.28,0,0,0,.24.31.27.27,0,1,0-.24-.31Zm-4.46-.62a.27.27,0,1,0,.31-.23A.27.27,0,0,0,157.94,211.94Zm-4.47-.61a.29.29,0,0,0,.24.31.28.28,0,0,0,.3-.24.27.27,0,0,0-.23-.31A.28.28,0,0,0,153.47,211.33Zm-4.46-.62a.27.27,0,0,0,.54.08.28.28,0,0,0-.24-.31A.27.27,0,0,0,149,210.71Zm-4.47-.62a.28.28,0,0,0,.23.31.27.27,0,1,0-.23-.31Zm-4.46-.61a.27.27,0,0,0,.23.31.28.28,0,0,0,.31-.24.29.29,0,0,0-.24-.31A.27.27,0,0,0,140.08,209.48Zm-4.47-.62a.27.27,0,1,0,.31-.23A.27.27,0,0,0,135.61,208.86ZM165,209.93a.28.28,0,0,0,.24.3.27.27,0,0,0,.3-.23.27.27,0,0,0-.23-.31A.28.28,0,0,0,165,209.93Zm-4.46-.62a.27.27,0,0,0,.23.31.28.28,0,0,0,.31-.24.27.27,0,0,0-.24-.3A.26.26,0,0,0,160.58,209.31Zm-4.47-.62a.27.27,0,1,0,.31-.23A.27.27,0,0,0,156.11,208.69Zm-4.46-.61a.26.26,0,0,0,.23.3.27.27,0,0,0,.31-.23.28.28,0,0,0-.24-.31A.27.27,0,0,0,151.65,208.08Zm-4.47-.62a.27.27,0,0,0,.23.31.28.28,0,0,0,.31-.24.26.26,0,0,0-.23-.3A.27.27,0,0,0,147.18,207.46Zm-4.46-.62a.27.27,0,0,0,.23.31.27.27,0,0,0,.31-.23.28.28,0,0,0-.24-.31A.26.26,0,0,0,142.72,206.84Zm-4.47-.61a.27.27,0,0,0,.54.07.27.27,0,0,0-.23-.31A.28.28,0,0,0,138.25,206.23Zm27.83,12.69a.26.26,0,0,0,.23.3.27.27,0,0,0,.31-.23.28.28,0,0,0-.24-.31A.27.27,0,0,0,166.08,218.92Zm-4.47-.62a.27.27,0,0,0,.23.31.28.28,0,0,0,.31-.24.26.26,0,0,0-.23-.3A.27.27,0,0,0,161.61,218.3Zm-4.46-.62a.27.27,0,0,0,.23.31.27.27,0,0,0,.31-.23.28.28,0,0,0-.24-.31A.26.26,0,0,0,157.15,217.68Zm-4.47-.61a.27.27,0,0,0,.54.07.27.27,0,0,0-.23-.31A.28.28,0,0,0,152.68,217.07Zm-4.47-.62a.28.28,0,1,0,.31-.23A.28.28,0,0,0,148.21,216.45Zm-4.46-.62a.27.27,0,1,0,.31-.23A.27.27,0,0,0,143.75,215.83Zm-4.47-.61a.28.28,0,0,0,.24.31.28.28,0,0,0,.07-.55A.28.28,0,0,0,139.28,215.22Zm-4.46-.62a.27.27,0,1,0,.31-.23A.27.27,0,0,0,134.82,214.6Zm29.43,1.06a.27.27,0,1,0,.31-.23A.28.28,0,0,0,164.25,215.66Zm-4.47-.61a.28.28,0,0,0,.55.07.28.28,0,1,0-.55-.07Zm-4.46-.62a.27.27,0,1,0,.31-.23A.27.27,0,0,0,155.32,214.43Zm-4.47-.61a.27.27,0,0,0,.24.3.27.27,0,0,0,.07-.54A.28.28,0,0,0,150.85,213.82Zm-4.46-.62a.27.27,0,0,0,.23.31.28.28,0,0,0,.31-.24.26.26,0,0,0-.23-.3A.27.27,0,0,0,146.39,213.2Zm-4.47-.62a.28.28,0,0,0,.24.31.26.26,0,0,0,.3-.23.27.27,0,1,0-.54-.08Zm-4.46-.61a.27.27,0,0,0,.54.07.27.27,0,1,0-.54-.07Zm-4.47-.62a.28.28,0,0,0,.24.31.28.28,0,0,0,.3-.23.27.27,0,0,0-.54-.08Zm32.29,13.31a.28.28,0,0,0,.55.07.28.28,0,1,0-.55-.07Zm-4.46-.62a.27.27,0,0,0,.23.31.28.28,0,0,0,.31-.24.26.26,0,0,0-.23-.3A.27.27,0,0,0,160.82,224Zm-4.47-.62a.28.28,0,0,0,.24.31.27.27,0,0,0,.07-.54A.27.27,0,0,0,156.35,223.42Zm-4.46-.61a.27.27,0,0,0,.54.07.27.27,0,0,0-.23-.31A.28.28,0,0,0,151.89,222.81Zm-4.47-.62a.28.28,0,0,0,.24.31.27.27,0,1,0-.24-.31Zm-4.46-.62a.27.27,0,1,0,.54.08.28.28,0,0,0-.23-.31A.27.27,0,0,0,143,221.57Zm-4.47-.61a.29.29,0,0,0,.24.31.28.28,0,0,0,.3-.24.27.27,0,0,0-.23-.31A.28.28,0,0,0,138.49,221Zm-4.46-.62a.27.27,0,1,0,.54.08.28.28,0,0,0-.24-.31A.26.26,0,0,0,134,220.34Zm29.43,1.06a.27.27,0,1,0,.54.08.28.28,0,0,0-.23-.31A.27.27,0,0,0,163.46,221.4Zm-4.47-.61a.28.28,0,0,0,.24.31.28.28,0,0,0,.07-.55A.28.28,0,0,0,159,220.79Zm-4.46-.62a.27.27,0,1,0,.54.08.28.28,0,0,0-.24-.31A.27.27,0,0,0,154.53,220.17Zm-4.47-.61a.28.28,0,0,0,.23.3.27.27,0,1,0,.08-.54A.28.28,0,0,0,150.06,219.56Zm-4.46-.62a.27.27,0,0,0,.23.31.28.28,0,0,0,.31-.24.27.27,0,0,0-.24-.3A.26.26,0,0,0,145.6,218.94Zm-4.47-.62a.27.27,0,1,0,.31-.23A.27.27,0,0,0,141.13,218.32Zm-4.46-.61a.26.26,0,0,0,.23.3.27.27,0,0,0,.31-.23.28.28,0,0,0-.24-.31A.27.27,0,0,0,136.67,217.71Zm-4.47-.62a.27.27,0,0,0,.23.31.28.28,0,0,0,.31-.24.27.27,0,0,0-.23-.3A.27.27,0,0,0,132.2,217.09Zm30.47,10a.27.27,0,0,0,.23.31.27.27,0,0,0,.31-.23.28.28,0,0,0-.24-.31A.26.26,0,0,0,162.67,227.14Zm-4.47-.61a.27.27,0,1,0,.54.07.27.27,0,0,0-.23-.31A.28.28,0,0,0,158.2,226.53Zm-4.47-.62a.28.28,0,0,0,.24.31.27.27,0,0,0,.31-.23.28.28,0,0,0-.55-.08Zm-4.46-.62a.27.27,0,1,0,.31-.23A.28.28,0,0,0,149.27,225.29Zm-4.47-.61a.28.28,0,0,0,.24.31.29.29,0,0,0,.31-.24.27.27,0,0,0-.24-.3A.27.27,0,0,0,144.8,224.68Zm-4.46-.62a.27.27,0,1,0,.31-.23A.27.27,0,0,0,140.34,224.06Zm-4.47-.61a.27.27,0,0,0,.24.3.26.26,0,0,0,.3-.23.27.27,0,0,0-.23-.31A.28.28,0,0,0,135.87,223.45Zm-4.1-.84.13.1A.22.22,0,0,0,131.77,222.61Z" style="fill:#fff"></path><path d="M156.66,203a2.19,2.19,0,1,0,2.47-1.87A2.18,2.18,0,0,0,156.66,203Z" style="opacity:0.1"></path><path d="M142.18,201a2.19,2.19,0,1,0,2.47-1.87A2.2,2.2,0,0,0,142.18,201Z" style="opacity:0.1"></path><path d="M157.36,203.06a1.48,1.48,0,0,0,2.94.41,1.48,1.48,0,1,0-2.94-.41Z" style="fill:#455a64"></path><path d="M142.88,201.06a1.48,1.48,0,1,0,1.67-1.27A1.49,1.49,0,0,0,142.88,201.06Z" style="fill:#455a64"></path><path d="M145.22,201.67l-1.35-.37.17-.62c7-25.66,13.63-49.9,22.64-51.15l.19,1.39c-8.09,1.13-14.9,26-21.48,50.13Z" style="fill:#455a64"></path><path d="M159.5,203.44l-1.35-.36c.08-.3,8-29.92,9.43-38.2,1.27-7.37,1.19-12.48-.21-13.68a1.16,1.16,0,0,0-1.24-.13l-.45-1.32a2.49,2.49,0,0,1,2.6.38c2.36,2,1.67,9.26.69,15C167.53,173.46,159.59,203.15,159.5,203.44Z" style="fill:#455a64"></path><rect x="69.57" y="262.35" width="42.46" height="79.02" transform="matrix(0.96, 0.27, -0.27, 0.96, 84.11, -13.29)" style="fill:#EECD18"></rect><g style="opacity:0.1"><rect x="77.57" y="272.83" width="42.46" height="0.48" transform="matrix(0.96, 0.27, -0.27, 0.96, 76.7, -16.48)" style="fill:#020100"></rect><rect x="75.28" y="281.06" width="42.46" height="0.48" transform="translate(78.81 -15.57) rotate(15.53)" style="fill:#020100"></rect><rect x="73" y="289.28" width="42.46" height="0.48" transform="translate(80.93 -14.66) rotate(15.53)" style="fill:#020100"></rect><rect x="70.71" y="297.51" width="42.46" height="0.48" transform="translate(83.05 -13.74) rotate(15.53)" style="fill:#020100"></rect><rect x="68.43" y="305.74" width="42.46" height="0.48" transform="translate(85.17 -12.83) rotate(15.53)" style="fill:#020100"></rect><rect x="66.14" y="313.96" width="42.46" height="0.48" transform="translate(87.29 -11.92) rotate(15.53)" style="fill:#020100"></rect><rect x="63.86" y="322.19" width="42.46" height="0.48" transform="translate(89.41 -11.01) rotate(15.53)" style="fill:#020100"></rect><rect x="61.57" y="330.42" width="42.46" height="0.48" transform="translate(91.53 -10.1) rotate(15.53)" style="fill:#020100"></rect></g><rect x="89.16" y="262.35" width="3.27" height="79.02" transform="translate(84.09 -13.29) rotate(15.52)" style="fill:#263238"></rect><rect x="96.27" y="291.94" width="3.54" height="23.87" transform="translate(84.92 -15.16) rotate(15.53)" style="fill:#263238"></rect><polygon points="102.26 339.91 92.43 337.18 86.92 341.79 100.68 345.61 102.26 339.91" style="fill:#263238"></polygon><polygon points="61.35 328.55 71.18 331.28 73.52 338.07 59.77 334.25 61.35 328.55" style="fill:#263238"></polygon><polygon points="91.82 350.52 95.45 351.53 99.76 345.36 91.91 343.18 93.21 347.22 91.82 350.52" style="fill:#263238"></polygon><path d="M87.87,351.65a5.2,5.2,0,1,0,6.4-3.62A5.19,5.19,0,0,0,87.87,351.65Z" style="fill:#37474f"></path><path d="M90.14,352.28a2.84,2.84,0,1,0,3.5-2A2.84,2.84,0,0,0,90.14,352.28Z" style="fill:#dbdbdb"></path><path d="M93.28,351.37c-.11.39-.15.73-.09.74s.2-.29.3-.68.16-.73.1-.74S93.39,351,93.28,351.37Z" style="fill:#263238"></path><path d="M94.35,352.15c-.36.2-.62.4-.59.46s.34-.07.7-.27.62-.41.59-.46S94.7,352,94.35,352.15Z" style="fill:#263238"></path><path d="M94.55,353.45c-.39-.11-.72-.15-.74-.09s.29.19.68.3.73.15.75.09S95,353.56,94.55,353.45Z" style="fill:#263238"></path><path d="M93.78,354.51c-.21-.35-.41-.61-.46-.59s.06.35.26.7.41.62.46.59S94,354.87,93.78,354.51Z" style="fill:#263238"></path><path d="M92.47,354.72c.11-.39.15-.73.09-.74s-.19.29-.3.68-.15.73-.09.74S92.36,355.11,92.47,354.72Z" style="fill:#263238"></path><path d="M91.41,353.94c.35-.2.62-.41.59-.46s-.35.07-.7.27-.62.41-.59.46S91.05,354.14,91.41,353.94Z" style="fill:#263238"></path><path d="M91.2,352.64c.4.11.73.15.75.09s-.29-.19-.69-.3-.72-.15-.74-.09S90.81,352.53,91.2,352.64Z" style="fill:#263238"></path><path d="M92,351.57c.2.36.41.62.46.59s-.07-.34-.27-.69-.41-.62-.46-.59S91.78,351.22,92,351.57Z" style="fill:#263238"></path><polygon points="64.83 343.02 61.19 342.01 60.68 334.5 68.53 336.68 65.34 339.48 64.83 343.02" style="fill:#263238"></polygon><path d="M67.63,346a5.2,5.2,0,1,1-3.62-6.4A5.21,5.21,0,0,1,67.63,346Z" style="fill:#37474f"></path><path d="M65.35,345.4a2.84,2.84,0,1,1-2-3.5A2.84,2.84,0,0,1,65.35,345.4Z" style="fill:#dbdbdb"></path><path d="M63.13,343c-.11.4-.24.7-.3.69s0-.35.09-.75.25-.69.3-.68S63.24,342.6,63.13,343Z" style="fill:#263238"></path><path d="M61.82,343.11c.2.36.32.67.27.7s-.26-.24-.46-.59-.32-.67-.27-.7S61.62,342.75,61.82,343.11Z" style="fill:#263238"></path><path d="M61,344.12c.4.11.7.25.69.3s-.35,0-.75-.09-.7-.24-.68-.3S60.58,344,61,344.12Z" style="fill:#263238"></path><path d="M61.09,345.43c.35-.2.67-.32.7-.26s-.24.25-.59.46-.67.32-.7.26S60.73,345.64,61.09,345.43Z" style="fill:#263238"></path><path d="M62.1,346.28c.11-.39.24-.7.3-.68s0,.35-.09.74-.24.7-.3.68S62,346.67,62.1,346.28Z" style="fill:#263238"></path><path d="M63.41,346.16c-.2-.35-.32-.66-.27-.69s.26.23.46.59.32.66.27.69S63.61,346.52,63.41,346.16Z" style="fill:#263238"></path><path d="M64.26,345.15c-.39-.11-.7-.24-.68-.3s.34,0,.74.09.7.25.68.31A1.47,1.47,0,0,1,64.26,345.15Z" style="fill:#263238"></path><path d="M64.14,343.84c-.35.2-.67.32-.69.27s.23-.26.58-.46.67-.32.7-.27S64.5,343.64,64.14,343.84Z" style="fill:#263238"></path><rect x="104.26" y="261.95" width="7.09" height="3.56" transform="translate(74.52 -19.23) rotate(15.52)" style="fill:#263238"></rect><rect x="125.15" y="208.38" width="3.23" height="61.35" transform="matrix(0.96, 0.27, -0.27, 0.96, 68.61, -25.21)" style="fill:#c7c7c7"></rect><rect x="131.89" y="208.49" width="4.59" height="7.73" transform="translate(61.73 -28.17) rotate(15.52)" style="fill:#263238"></rect><path d="M165.83,158.33c-2.92,4.21-14.79,20.51-15.14,21.43s-6.68,19.39-7.33,22.38c-.47,2.11-15-4.9-14.47-6.71,1.19-4.24,4.49-17,7.66-21.59,4.13-6,21-19.13,26-21.56C166.78,150.22,170.63,151.41,165.83,158.33Z" style="fill:#ad6359"></path><path d="M135.12,209c.91-.55,1.2-.08.53,1.68s-4.82,8.16-2.46,9.42,8.07-7.85,9-10.87a49.46,49.46,0,0,0,1.27-8.21C142,202.57,138,206,135.12,209Z" style="fill:#ad6359"></path><path d="M130.91,191.52c-4,4.52-9.21,9.9-10.49,16.57a3.36,3.36,0,0,0,.26,2.18c-.63,3,.59,4.17.59,4.17.26,2.95,1.67,4,1.67,4s-.7,3.51,1.35,4.28c2.3.88,2.83-4.22,4.84-6.84,4.59-6,12.81-13.26,14.3-14.86Z" style="fill:#ad6359"></path><path d="M129.52,206.2a48.63,48.63,0,0,0-3.73,5.49A49.07,49.07,0,0,0,123,218.4a.06.06,0,1,1-.12,0,25.67,25.67,0,0,1,6.54-12.23C129.51,206.06,129.59,206.11,129.52,206.2Z" style="fill:#263238"></path><path d="M126.3,202.9a35.63,35.63,0,0,0-5,11.56s0,0,0,0a23,23,0,0,1,4.91-11.61C126.29,202.74,126.38,202.78,126.3,202.9Z" style="fill:#263238"></path><path d="M124.53,201.16a36,36,0,0,0-3.83,9.1s0,0,0,0a21.52,21.52,0,0,1,3.77-9.17C124.51,201,124.61,201,124.53,201.16Z" style="fill:#263238"></path></g><g id="freepik--character-1--inject-64"><polygon points="184 412.52 251.72 412.52 261.42 402.78 275.44 319.42 269.29 318.38 255.6 399.79 249.13 406.29 184 406.29 184 412.52" style="fill:#263238"></polygon><polygon points="259.8 397.14 333.9 397.14 346.36 323.04 272.26 323.04 259.8 397.14" style="fill:#EECD18"></polygon><polygon points="259.8 397.14 333.9 397.14 346.36 323.04 272.26 323.04 259.8 397.14" style="fill:#fff;opacity:0.7000000000000001"></polygon><polygon points="333.2 401.29 325.12 409.4 250.42 409.4 258.51 401.29 333.2 401.29" style="fill:#EECD18"></polygon><polygon points="333.2 401.29 325.12 409.4 250.42 409.4 258.51 401.29 333.2 401.29" style="fill:#fff;opacity:0.7000000000000001"></polygon><polyline points="325.12 409.4 250.42 409.4 185.38 409.4 258.69 410.79" style="fill:#EECD18"></polyline><polyline points="325.12 409.4 250.42 409.4 185.38 409.4 258.69 410.79" style="fill:#fff;opacity:0.7000000000000001"></polyline><polygon points="258.69 412.52 326.41 412.52 336.11 402.78 350.13 319.42 343.98 318.38 330.29 399.79 323.82 406.29 258.69 406.29 258.69 412.52" style="fill:#263238"></polygon><polygon points="282.62 412.52 350.34 412.52 360.04 402.78 374.06 319.42 367.92 318.38 354.22 399.79 347.75 406.29 282.62 406.29 282.62 412.52" style="fill:#263238"></polygon><polygon points="358.42 397.14 432.52 397.14 444.98 323.04 370.88 323.04 358.42 397.14" style="fill:#EECD18"></polygon><polygon points="358.42 397.14 432.52 397.14 444.98 323.04 370.88 323.04 358.42 397.14" style="fill:#fff;opacity:0.7000000000000001"></polygon><polygon points="431.82 401.29 423.74 409.4 349.05 409.4 357.13 401.29 431.82 401.29" style="fill:#EECD18"></polygon><polygon points="431.82 401.29 423.74 409.4 349.05 409.4 357.13 401.29 431.82 401.29" style="fill:#fff;opacity:0.7000000000000001"></polygon><polyline points="423.74 409.4 349.05 409.4 284 409.4 357.31 410.79" style="fill:#EECD18"></polyline><polyline points="423.74 409.4 349.05 409.4 284 409.4 357.31 410.79" style="fill:#fff;opacity:0.7000000000000001"></polyline><polygon points="357.31 412.52 425.03 412.52 434.73 402.78 448.75 319.42 442.61 318.38 428.91 399.79 422.44 406.29 357.31 406.29 357.31 412.52" style="fill:#263238"></polygon><polygon points="381.25 412.52 448.96 412.52 458.66 402.78 472.69 319.42 466.54 318.38 452.84 399.79 446.38 406.29 381.25 406.29 381.25 412.52" style="fill:#263238"></polygon><polygon points="457.04 397.14 531.14 397.14 543.61 323.04 469.51 323.04 457.04 397.14" style="fill:#EECD18"></polygon><polygon points="457.04 397.14 531.14 397.14 543.61 323.04 469.51 323.04 457.04 397.14" style="fill:#fff;opacity:0.7000000000000001"></polygon><polygon points="530.44 401.29 522.36 409.4 447.67 409.4 455.75 401.29 530.44 401.29" style="fill:#EECD18"></polygon><polygon points="530.44 401.29 522.36 409.4 447.67 409.4 455.75 401.29 530.44 401.29" style="fill:#fff;opacity:0.7000000000000001"></polygon><polyline points="522.36 409.4 447.67 409.4 382.63 409.4 455.94 410.79" style="fill:#EECD18"></polyline><polyline points="522.36 409.4 447.67 409.4 382.63 409.4 455.94 410.79" style="fill:#fff;opacity:0.7000000000000001"></polyline><polygon points="455.94 412.52 523.65 412.52 533.35 402.78 547.38 319.42 541.23 318.38 527.53 399.79 521.07 406.29 455.94 406.29 455.94 412.52" style="fill:#263238"></polygon><polygon points="479.87 412.52 547.58 412.52 557.28 402.78 571.31 319.42 565.16 318.38 551.46 399.79 545 406.29 479.87 406.29 479.87 412.52" style="fill:#263238"></polygon><polygon points="555.66 397.14 629.76 397.14 642.23 323.04 568.13 323.04 555.66 397.14" style="fill:#EECD18"></polygon><polygon points="555.66 397.14 629.76 397.14 642.23 323.04 568.13 323.04 555.66 397.14" style="fill:#fff;opacity:0.7000000000000001"></polygon><polygon points="629.07 401.29 620.98 409.4 546.29 409.4 554.37 401.29 629.07 401.29" style="fill:#EECD18"></polygon><polygon points="629.07 401.29 620.98 409.4 546.29 409.4 554.37 401.29 629.07 401.29" style="fill:#fff;opacity:0.7000000000000001"></polygon><polyline points="620.98 409.4 546.29 409.4 481.25 409.4 554.56 410.79" style="fill:#EECD18"></polyline><polyline points="620.98 409.4 546.29 409.4 481.25 409.4 554.56 410.79" style="fill:#fff;opacity:0.7000000000000001"></polyline><polygon points="554.56 412.52 622.28 412.52 631.98 402.78 646 319.42 639.85 318.38 626.16 399.79 619.69 406.29 554.56 406.29 554.56 412.52" style="fill:#263238"></polygon><polygon points="282.7 412.52 350.42 412.52 360.12 402.78 374.14 319.42 367.99 318.38 354.3 399.79 347.83 406.29 282.7 406.29 282.7 412.52" style="fill:#263238"></polygon><polygon points="358.5 397.14 432.6 397.14 445.06 323.04 370.96 323.04 358.5 397.14" style="fill:#EECD18"></polygon><polygon points="358.5 397.14 432.6 397.14 445.06 323.04 370.96 323.04 358.5 397.14" style="fill:#fff;opacity:0.7000000000000001"></polygon><polygon points="431.9 401.29 423.82 409.4 349.13 409.4 357.21 401.29 431.9 401.29" style="fill:#EECD18"></polygon><polygon points="431.9 401.29 423.82 409.4 349.13 409.4 357.21 401.29 431.9 401.29" style="fill:#fff;opacity:0.7000000000000001"></polygon><polyline points="423.82 409.4 349.13 409.4 284.08 409.4 357.39 410.79" style="fill:#EECD18"></polyline><polyline points="423.82 409.4 349.13 409.4 284.08 409.4 357.39 410.79" style="fill:#fff;opacity:0.7000000000000001"></polyline><polygon points="357.39 412.52 425.11 412.52 434.81 402.78 448.83 319.42 442.68 318.38 428.99 399.79 422.52 406.29 357.39 406.29 357.39 412.52" style="fill:#263238"></polygon><rect x="231.76" y="427.72" width="362.75" height="8.37" style="fill:#dbdbdb"></rect><rect x="594.51" y="412.52" width="9.46" height="62.09" style="fill:#dbdbdb"></rect><polygon points="594.51 474.61 594.51 468.4 562.55 472.36 562.55 474.61 594.51 474.61" style="fill:#c7c7c7"></polygon><polygon points="603.96 474.61 603.96 468.4 635.92 472.36 635.92 474.61 603.96 474.61" style="fill:#c7c7c7"></polygon><rect x="408.4" y="412.52" width="9.46" height="62.09" style="fill:#dbdbdb"></rect><polygon points="408.4 474.61 408.4 468.4 376.45 472.36 376.45 474.61 408.4 474.61" style="fill:#c7c7c7"></polygon><polygon points="417.86 474.61 417.86 468.4 449.82 472.36 449.82 474.61 417.86 474.61" style="fill:#c7c7c7"></polygon><rect x="222.3" y="412.52" width="9.46" height="62.09" style="fill:#dbdbdb"></rect><polygon points="222.3 474.61 222.3 468.4 190.34 472.36 190.34 474.61 222.3 474.61" style="fill:#c7c7c7"></polygon><polygon points="231.75 474.61 231.75 468.4 263.71 472.36 263.71 474.61 231.75 474.61" style="fill:#c7c7c7"></polygon><path d="M116.38,475.12c2.43.06,65.34-19.39,67.26-21.64.21-.25-.77-9.56-2.4-17-.07-.35,22.34-29.72,22.34-29.72L163.06,391,143.67,431.2l-5,10.45s-21,21.1-22.84,23.8S114,475.07,116.38,475.12Z" style="fill:#eb9481"></path><path d="M116.38,475.13c2.43,0,65.34-19.39,67.26-21.65.21-.25-.77-9.57-2.39-17,0-.12,1.44-2.08,3.56-4.94l-42.43,2.29-3.75,7.78s-21,21.1-22.85,23.8S114,475.07,116.38,475.13Z" style="fill:#ebebeb"></path><path d="M114.61,475.48c2.53.06,68.2-20,70.22-22.33.78-.89-.4-4.95-3.59-16.63l-43.05,5.18S116,462.57,114,465.38,112.08,475.41,114.61,475.48Z" style="fill:#EECD18"></path><path d="M114.61,475.48c2.53.06,68.2-20,70.22-22.33.78-.89-.4-4.95-3.59-16.63l-43.05,5.18S116,462.57,114,465.38,112.08,475.41,114.61,475.48Z" style="opacity:0.30000000000000004"></path><path d="M114.75,472.56c10.93-3.63,55.34-17.24,66.42-20,.09,0,.1,0,0,.07-10.75,3.83-55.27,17.09-66.38,20.11C114.57,472.81,114.52,472.64,114.75,472.56Z" style="fill:#263238"></path><path d="M117.53,461.73a9.27,9.27,0,0,1,7.41.68,9,9,0,0,1,4.25,5.13c0,.06-.1.1-.13,0a10.69,10.69,0,0,0-11.49-5.71A.07.07,0,0,1,117.53,461.73Z" style="fill:#263238"></path><path d="M133.74,446.05c4.39-1.41,10-1.41,13.81,1.36.15.1,0,.31-.16.29a63.51,63.51,0,0,0-13.56-1.09A.29.29,0,0,1,133.74,446.05Z" style="fill:#263238"></path><path d="M130.75,448.41c4.38-1.4,10-1.41,13.8,1.36.15.11,0,.32-.15.29A63.56,63.56,0,0,0,130.84,449,.29.29,0,0,1,130.75,448.41Z" style="fill:#263238"></path><path d="M127.75,450.78c4.39-1.41,10-1.41,13.81,1.35.15.11,0,.32-.16.29a64.16,64.16,0,0,0-13.56-1.08A.29.29,0,0,1,127.75,450.78Z" style="fill:#263238"></path><path d="M124.75,453.14c4.39-1.4,10-1.41,13.81,1.36.15.11,0,.32-.16.29a63.5,63.5,0,0,0-13.56-1.08A.29.29,0,0,1,124.75,453.14Z" style="fill:#263238"></path><path d="M127.71,442.09c3.32,2.35,7.53,3.17,11.33,4.38a.55.55,0,0,0,.68-.59c.08,0,.14-.08.1-.17a24.12,24.12,0,0,0-7.44-10c-2-1.5-5.32-2.45-7,.08S125.78,440.73,127.71,442.09Zm-1.31-3.58c-1-4.93,4.42-2.57,5.82-1.4a24.57,24.57,0,0,1,2.52,2.48,69.39,69.39,0,0,1,4.47,5.77c-1.83-.71-3.7-1.26-5.55-1.9C131.45,442.69,127,441.22,126.4,438.51Z" style="fill:#263238"></path><path d="M154.61,438.12c-1.22-2.77-4.69-2.39-6.88-1.23a24.16,24.16,0,0,0-9,8.67.12.12,0,0,0,.07.18c-.06.34.16.76.57.7,3.95-.56,8.24-.68,11.9-2.44C153.4,443,155.77,440.74,154.61,438.12Zm-9.43,6.24c-1.93.33-3.87.56-5.79.95,1.76-1.68,3.44-3.44,5.37-4.95a26.33,26.33,0,0,1,2.89-2c1.58-.91,7.34-2.34,5.51,2.35C152.16,443.27,147.49,444,145.18,444.36Z" style="fill:#263238"></path><path d="M173.49,443.47c-4.4,1.09-2.72,7.92,1.68,6.83S177.89,442.39,173.49,443.47Z" style="fill:#fff"></path><path d="M143.47,427.17l44.68,6.59s22.52-38.35,32.37-49.36l0,0a16.14,16.14,0,0,1,1.8-1.76h0a9.55,9.55,0,0,1,3.23-.8h0c13.21-1.6,57.67,2.72,88.4.73l-14.35-19.18-6.36-8.5c-34.61-4-77.08-18.1-96.25-8.49C176.22,356.81,143.47,427.17,143.47,427.17Z" style="fill:#263238"></path><path d="M149.07,419.58c7.6,1,5.43.59,13,1.65,3.72.52,22.37,3.08,25.75,4.14a.07.07,0,0,1,0,.14c-3.54,0-22.14-2.93-25.84-3.51-7.56-1.2-5.38-.94-12.93-2.21A.11.11,0,1,1,149.07,419.58Z" style="fill:#37474f"></path><path d="M187.92,424.74c5.06-8.45,26.22-44.26,30.8-45.9,4.17-1.5,87.61.24,88.85.25a.07.07,0,0,1,0,.13c-9.87-.12-86.14-.4-88.32.46-4.52,1.79-30.19,44.28-30.87,45.29C188.2,425.24,187.75,425,187.92,424.74Z" style="fill:#37474f"></path><path d="M337.33,365.08s2.64,25.16-10.12,37.68c-15.28,15-116.11,11.19-131.74,6.14s-16.11-30.26,1-36.11c16.25-5.55,88.29-8.75,90-9.43s6.7-8.65,6.7-8.65Z" style="fill:#263238"></path><path d="M316,364.37c0-.12.2-.08.2,0a14,14,0,0,0,3.25,8.93c2.4,2.76,5.92,4.31,9.12,5.92.31.16.08.64-.24.55a28.53,28.53,0,0,1-5.65-2.44,13.64,13.64,0,0,1-4.24-3.53A12.13,12.13,0,0,1,316,364.37Z" style="fill:#37474f"></path><path d="M287.13,361.79c.71-.91,1.49-1.77,2.23-2.66,1.76-2.09,3.53-4.2,5.38-6.22.17-.19.51.08.35.29-1.24,1.62-2.56,3.2-3.85,4.78l-2,2.43a15.57,15.57,0,0,0-1.86,2.36c-.49.91.15,1.68,1.08,1.78a3.29,3.29,0,0,0,2.25-.83,30,30,0,0,0,3.81-4.08c.74-.83,1.49-1.67,2.24-2.49s1.65-1.71,2.45-2.58c.05-.06.15,0,.1.08-.69,1-1.34,2-2,2.92s-1.4,1.91-2.12,2.85-1.39,1.76-2.12,2.61a8.55,8.55,0,0,1-2.15,1.92c-1.33.79-3.65,1-4.37-.77A2.43,2.43,0,0,1,287.13,361.79Z" style="fill:#37474f"></path><path d="M197.61,409c5.38.1,10.76.41,16.14.52s10.67.15,16,.1q16.08-.15,32.13-1.25c10.81-.75,22.47-1.83,33.21-3.31,5.13-.71,10.34-1.31,15.42-2.4a24.33,24.33,0,0,0,12.16-6.21c7-6.75,9.66-16.66,10.77-26.13.15-1.28.27-2.55.37-3.83,0-.08.14-.08.13,0-.62,9.71-2.13,19.84-8.24,27.65a24.41,24.41,0,0,1-9.95,7.73c-4.81,1.92-10.15,2.37-15.23,3.06-10.78,1.46-22.48,2.59-33.32,3.43s-21.85,1.38-32.79,1.54-21.89,0-32.82-.53c-1.33-.07-2.66-.14-4-.26A.06.06,0,1,1,197.61,409Z" style="fill:#37474f"></path><path d="M183.25,385.48a17.28,17.28,0,0,1,7.2-10.3c3.87-2.65,8.51-3.85,13.09-4.52,5.19-.75,10.44-1.14,15.66-1.64q16.05-1.56,32.13-2.88c10.71-.89,33.78-2.68,35.08-2.73.11,0,.14.19,0,.2-10.34,1.15-19.75,2.14-30.11,3.08s-20.81,1.94-31.22,3l-15.55,1.57c-4.8.5-9.74,1-14.24,2.84A17.83,17.83,0,0,0,186,382a18.56,18.56,0,0,0-1.54,12,21.08,21.08,0,0,0,5,10.12,17.92,17.92,0,0,0,9.36,5.65c1,.2,2.1.35,3,.52.06,0,.13.16.06.16-7.74.2-14.9-5.46-17.7-12.53A20.77,20.77,0,0,1,183.25,385.48Z" style="fill:#37474f"></path><path d="M340.23,368.75c-.14.18-62.1-5.66-62.74-6.3-.91-.89,4.33-47.58,14.05-62.51,2.43-3.74,11.52-4.61,16-1.69C329.69,312.73,340.73,368.09,340.23,368.75Z" style="fill:#455a64"></path><path d="M316,303.44c11,9,39.6,44.77,33.17,52.89s-48.78,4.12-61.06.2c-3.66-1.17,6.47-24.33,10.44-25.38,3.3-.87,21.52,4.65,21.89,3.59s-3.44-9.05-9.6-23.4C303.79,294.8,311.19,299.48,316,303.44Z" style="fill:#eb9481"></path><path d="M281.39,327.92c-8.19,0-10.3,1.23-17.2-2.47-4.53-2.42-8-.57-5,3.86,4.91,7.23,15.47,9.49,19.36,9.21Z" style="fill:#eb9481"></path><path d="M303.81,332.76s-9.72-3.79-18.45-4.68c-6-.62-19.32-.49-30.06,14.09-2.55,3.46-3.73,10.19,2.48,6.06,4.42-2.94,6.33-6.14,9.21-7.38,0,0-.48,8.74,3.08,11.16a78.16,78.16,0,0,0,9.77,5.65,16.81,16.81,0,0,0,1.22-1.73s3.54,1.94,9.52.54Z" style="fill:#eb9481"></path><path d="M279.5,328.41c-2.59,1.84-8,5.83-11.35,10.63-3.68,5.34-9.33,16.62-5.36,19.3,2.91,2,5.45-2.16,5.45-2.16s-1.35,5.16,1.66,6.36c2.75,1.09,4.52-2.21,4.52-2.21s-.28,3.26,2.57,3.8c3.43.66,3.46-6.3,7.51-8.64C285.4,355,279.5,328.41,279.5,328.41Z" style="fill:#eb9481"></path><path d="M274.45,342a25.86,25.86,0,0,0-6.27,14.07c0,.14.08.22.12.1A63.5,63.5,0,0,1,274.5,342S274.47,342,274.45,342Z" style="fill:#263238"></path><path d="M279.73,345.86c-1.67,2-5.17,8.48-5.42,14.42,0,.14.1.21.13.09a68.45,68.45,0,0,1,5.34-14.48S279.75,345.84,279.73,345.86Z" style="fill:#263238"></path><path d="M267,340.79c-2.52,1.13-4.05,2.65-6.05,4.49a36.51,36.51,0,0,1-3.09,2.59c-1,.73-2.44,1.81-3.7,1.06a2.17,2.17,0,0,1-.78-2.07,10.6,10.6,0,0,1,1-3.18s-.05-.07-.07,0a15.33,15.33,0,0,0-1.21,2.87,3.51,3.51,0,0,0,0,2.08c.58,1.39,2.31,1.35,3.47.79a11.26,11.26,0,0,0,1.92-1.28c.59-.45,1.15-.93,1.7-1.42,1.13-1,2.21-2.09,3.33-3.11a33.25,33.25,0,0,1,3.45-2.69S267,340.77,267,340.79Z" style="fill:#263238"></path><path d="M262.74,350.76a82.3,82.3,0,0,1,4.3-9.91s0-.08-.06-.05a43.74,43.74,0,0,0-4.91,9.56,14.51,14.51,0,0,0-.87,5.75c.37,2.74,2.26,3,2.95,3.05a3.61,3.61,0,0,0,2.28-.7,7.25,7.25,0,0,0,1.84-2.27s0-.09-.06,0c-.81,1.2-2.24,2.48-3.75,2.49a2.53,2.53,0,0,1-1.82-.68,3.27,3.27,0,0,1-.74-2.15A15.25,15.25,0,0,1,262.74,350.76Z" style="fill:#263238"></path><path d="M303.84,331.58,294.46,361s53,4.56,56.19-5-21.51-41.85-31.89-50.83c-12-10.4-12.82-6.2-9.09,4,3.89,10.64,10.69,25.87,10.69,25.87Z" style="fill:#455a64"></path><path d="M337,340.26a62.28,62.28,0,0,0-8.09-3.39,59.12,59.12,0,0,0-8.41-2.11c-1.62-.3-3.25-.52-4.89-.76,0,0-.06.07,0,.08a74.74,74.74,0,0,1,8.48,2q4.15,1.22,8.27,2.58c1.55.51,3.08,1.1,4.61,1.67A.06.06,0,0,0,337,340.26Z" style="fill:#263238"></path><path d="M304,331.48c.27,0,14.95,2.77,15.44,2.92-.08-.21-3.62-7.34-4.15-8.38l-.15-.31c-.32-.46-.65-.91-.95-1.37l-1.17-1.8s0,0,0,0l1.24,1.74c.19.27.37.55.55.82-.35-.74-.7-1.48-1-2.23-.55-1.19-1.06-2.39-1.56-3.6,0,0,0-.06.06,0,1,2.08,2.15,4.12,3.2,6.2s5,9.7,5,9.7-16.23-3.36-16.54-3.45A.1.1,0,0,1,304,331.48Z" style="fill:#263238"></path><path d="M305.47,349.65c1-3.29,2-6.58,3.18-9.82.65-1.84,1.29-3.69,2-5.53,0-.07.15,0,.13,0-.9,3.33-1.81,6.67-2.86,10s-2.07,6.56-3.16,9.82c-.62,1.86-1.29,3.69-2,5.51,0,0-.08,0-.07,0C303.42,356.25,304.44,353,305.47,349.65Z" style="fill:#263238"></path><path d="M293.86,361.54c.39-.93.88-2.24,1.31-3.14.12-.24.3-.22.21,0-.29.82-.49,1.73-.77,2.58l2.22.13,2.57.18q2.52.18,5,.3,5.1.24,10.22.27a196.91,196.91,0,0,0,20.47-.86q2.87-.27,5.69-.69a55,55,0,0,0,5.56-1c.05,0,.07.07,0,.09a31.52,31.52,0,0,1-4.78,1.29c-1.7.32-3.41.59-5.13.8-3.42.43-6.86.67-10.31.82q-10.24.45-20.5,0-2.88-.12-5.74-.3c-1-.06-1.93-.12-2.9-.2A19.3,19.3,0,0,1,293.86,361.54Z" style="fill:#263238"></path><rect x="221.77" y="366.29" width="73.23" height="2.95" style="fill:#455a64"></rect><rect x="254.47" y="366.29" width="40.52" height="2.95" style="fill:#a6a6a6"></rect><polygon points="255.7 369.24 191.53 369.24 182.46 325.65 246.63 325.65 255.7 369.24" style="fill:#a6a6a6"></polygon><polygon points="252.79 369.24 188.62 369.24 179.55 325.65 243.72 325.65 252.79 369.24" style="fill:#c7c7c7"></polygon><path d="M220.45,348.42a3.78,3.78,0,0,1-3.83,4.28,4.88,4.88,0,0,1-4.73-4.28,3.78,3.78,0,0,1,3.83-4.28A4.88,4.88,0,0,1,220.45,348.42Z" style="fill:#ebebeb"></path><path d="M297.41,312.57s10.84-10.51,17.83-10.23l5.91,5.29s1.94.65,2.55-.58c1.5-3.05,1.84-10.43-4.49-15.25-5.8-4.42-15.32-4.14-23.28-2.08-7.64,2-14.28,7-12,12S297.41,312.57,297.41,312.57Z" style="fill:#455a64"></path><path d="M296.65,310.22s-8.72-6.28-9.6-10,6.54-7.21,11.34-8.58c7.43-2.11,12.47-1.61,16.61,2.37S296.65,310.22,296.65,310.22Z" style="opacity:0.1"></path><path d="M298,309.59c2.77-.29,7.7-6.3,9.27-11,.11-.32-.89-3.31-1.93-7-.62-2.25-1.26-4.76-1.67-7.1l-14,6.18a37.85,37.85,0,0,1,3,8.72,4.67,4.67,0,0,1,.07,1c0,.05,0,.11,0,.17C292.74,302.42,293.64,310.06,298,309.59Z" style="fill:#eb9481"></path><path d="M292.71,300.39a.84.84,0,0,0,0,.16,9.7,9.7,0,0,0,1.52-.19c8.3-1.68,8.53-12.19,8.39-15.4l-13,5.73a38,38,0,0,1,3,8.72A8.37,8.37,0,0,1,292.71,300.39Z" style="fill:#263238"></path><path d="M300.53,266.83c2.82,4.74,3.76,20.22.93,24.41-4.11,6.09-12.65,8.68-18.28,3.32-5.46-5.19-6.32-25.37-3-29.38C285.11,259.29,296.36,259.83,300.53,266.83Z" style="fill:#eb9481"></path><path d="M290.51,277.74a13.08,13.08,0,0,1-1.34-.33,2.29,2.29,0,0,1-1.3-.61.71.71,0,0,1,0-.87,1.8,1.8,0,0,1,1.76-.35,2.57,2.57,0,0,1,1.59,1A.75.75,0,0,1,290.51,277.74Z" style="fill:#263238"></path><path d="M280,278.81c.46-.12.86-.31,1.3-.47a2.26,2.26,0,0,0,1.24-.74.71.71,0,0,0-.12-.86,1.77,1.77,0,0,0-1.78-.17,2.58,2.58,0,0,0-1.49,1.14A.76.76,0,0,0,280,278.81Z" style="fill:#263238"></path><path d="M290.89,289.9c-.23.26-.45.62-.82.69a2.77,2.77,0,0,1-1.14-.16s-.07,0,0,.06a1.4,1.4,0,0,0,1.37.44,1.11,1.11,0,0,0,.73-1C291,289.87,290.92,289.86,290.89,289.9Z" style="fill:#263238"></path><path d="M289.51,286.88a3.57,3.57,0,0,1-2.22,1.8,4.52,4.52,0,0,1-1.27.17h-.24l-.23,0a.25.25,0,0,1-.23-.21h0v-.11h0v-.1c-.1-.79-.13-2-.13-2-.28.18-1.71,1-1.73.56a53.92,53.92,0,0,1,.39-10.84.1.1,0,0,1,.19,0c.24,3.34-.11,6.7.08,10.06a6.42,6.42,0,0,1,1.63-.66c.11,0,0,2.37.09,2.73v0a4.93,4.93,0,0,0,3.56-1.47C289.47,286.73,289.56,286.8,289.51,286.88Z" style="fill:#263238"></path><path d="M286.46,288.4a4.17,4.17,0,0,0,1.8,1.15,1.89,1.89,0,0,0,1.15,0c.81-.3.76-1.06.55-1.7a4.54,4.54,0,0,0-.46-1A5.49,5.49,0,0,1,286.46,288.4Z" style="fill:#263238"></path><path d="M288.26,289.55a1.89,1.89,0,0,0,1.15,0c.81-.3.76-1.06.55-1.7A2,2,0,0,0,288.26,289.55Z" style="fill:#ff9abb"></path><path d="M288.38,280.49s.09,0,.09.09c.1,1,.38,2.2,1.35,2.42,0,0,0,.06,0,.06C288.67,283,288.31,281.49,288.38,280.49Z" style="fill:#263238"></path><path d="M289.17,279.31c1.64-.33,2.18,3,.66,3.28S287.79,279.58,289.17,279.31Z" style="fill:#263238"></path><path d="M282.36,281.07s-.07.06-.06.1c.21,1,.27,2.22-.59,2.72,0,0,0,.06,0,.05C282.83,283.59,282.72,282,282.36,281.07Z" style="fill:#263238"></path><path d="M281.27,280.16c-1.67.16-1.23,3.48.31,3.33S282.66,280,281.27,280.16Z" style="fill:#263238"></path><path d="M278.29,271.71c.42-1.42.93-2.87,1.71-3.23s1.48,2.13,3.34,2c2.52-.14,3.69-3.27,7.2-3.53,4.36-.31,7,2.61,7.95,9.71.88,6.35,4.63,6.74,4.63,6.74s1.31-14.5-3.21-18.66-13.83-5.11-19.38.05C278.51,266.71,278.29,271.71,278.29,271.71Z" style="fill:#263238"></path><path d="M300.33,279.68s2.29-5.57,4.74-4.86,1.49,8.25-.86,9.78a2.67,2.67,0,0,1-3.81-.62Z" style="fill:#eb9481"></path><path d="M304.74,277s.06,0,0,.07c-1.64,1.13-2.21,3-2.48,4.89a1.47,1.47,0,0,1,2.06-.88c.06,0,0,.11,0,.11a1.62,1.62,0,0,0-1.64.95,8.3,8.3,0,0,0-.53,1.62c-.05.18-.35.16-.34,0v0C301.27,281.36,302.33,277.76,304.74,277Z" style="fill:#263238"></path><path d="M284.2,262.53A22.21,22.21,0,0,1,290,259.6c2.32-.73,9.92-1.49,12-.31s3.81,8.15,4,9.18.89,7.34-1.1,9.25-4.11-8.65-8.31-11.53S284.2,262.53,284.2,262.53Z" style="fill:#EECD18"></path><path d="M284.2,262.53s8.22.79,12.42,3.67,6.32,13.44,8.31,11.53c.88-.85,1.19-1.92,1.3-3.65-1-3-3.15-7.6-6.33-10.46-3-2.69-7.42-3.52-12-3.22A24.68,24.68,0,0,0,284.2,262.53Z" style="opacity:0.1"></path><path d="M305.44,284.13c-.71-2.79-4.94-9.84-8.73-13.63s-13.1-4.74-14.33-4.45c-3,.71-3.38,2.27-3.9,2.09s1.87-4.14,2.62-4.8a9.87,9.87,0,0,1,4-1.79c1.31-.2,9.51-.85,13.06,2.06s9.42,11.81,9.1,14.41c-.07.63-.79,1.15-.89,2-.14,1.16-.14,2.48-.33,3.31C305.86,284,305.5,284.37,305.44,284.13Z" style="fill:#EECD18"></path><path d="M295.67,268.67a14.31,14.31,0,0,0,1.7-1.78,10.44,10.44,0,0,0,1.35-2.08,0,0,0,1,1,.09,0,8,8,0,0,1-1.16,2.27,6.81,6.81,0,0,1-1.89,1.7C295.68,268.86,295.6,268.73,295.67,268.67Z" style="fill:#263238"></path><path d="M305,281.3c0-.21.15-.42.21-.63a4,4,0,0,0,.14-.75,6.24,6.24,0,0,1,.07-1.43,4.88,4.88,0,0,1,.5-1.06,2,2,0,0,0,.35-1.24,0,0,0,1,1,.09,0,4.76,4.76,0,0,1-.56,2.35,10,10,0,0,0-.12,1.54,2.22,2.22,0,0,1-.53,1.31A.09.09,0,0,1,305,281.3Z" style="fill:#263238"></path><path d="M303.44,278.42a10.73,10.73,0,0,0,.62-1.1,9.44,9.44,0,0,0,.42-1.16c.11-.39.2-.79.3-1.18s.31-.92.41-1.39c0-.06.11,0,.09,0-.1.49-.13,1-.22,1.48a10.43,10.43,0,0,1-.33,1.25,6.39,6.39,0,0,1-.48,1.14,3.15,3.15,0,0,1-.77,1S303.43,278.45,303.44,278.42Z" style="fill:#263238"></path><path d="M301.92,275.85a8.18,8.18,0,0,0,1.22-2c.3-.71.56-1.44.8-2.17a.05.05,0,0,1,.1,0,10.13,10.13,0,0,1-.59,2.32,5.3,5.3,0,0,1-.56,1,5.05,5.05,0,0,1-.9.89S301.88,275.89,301.92,275.85Z" style="fill:#263238"></path><path d="M300.32,273.4a2.64,2.64,0,0,0,.62-.89c.19-.36.37-.72.53-1.09s.34-.71.5-1.07a2.82,2.82,0,0,0,.32-1.13,0,0,0,0,1,.09,0,2.85,2.85,0,0,1-.13,1.16,6.58,6.58,0,0,1-.44,1.22,9.32,9.32,0,0,1-.61,1.12,1.85,1.85,0,0,1-.8.79C300.33,273.54,300.26,273.45,300.32,273.4Z" style="fill:#263238"></path><path d="M298.92,270.19c.21-.3.43-.61.62-.93s.36-.64.53-1,.37-.69.52-1.05c0-.06.11,0,.09,0a7.2,7.2,0,0,1-.33,1.12,9,9,0,0,1-.52,1,8.82,8.82,0,0,1-.63,1,2.94,2.94,0,0,1-.81.8s-.11,0-.09-.08A6.09,6.09,0,0,1,298.92,270.19Z" style="fill:#263238"></path><path d="M293.22,267.46a10.35,10.35,0,0,1,.68-1.16,11,11,0,0,1,.84-1.1,11.71,11.71,0,0,1,1.92-1.87s.11,0,.08.06c-1.14,1.39-2.33,2.72-3.44,4.12A0,0,0,0,1,293.22,267.46Z" style="fill:#263238"></path><path d="M291.07,265.35a5.77,5.77,0,0,1,.8-1.09,12.47,12.47,0,0,1,2.18-1.78c.05,0,.11,0,.06.07-.64.62-1.3,1.23-1.91,1.88-.3.33-.6.66-.86,1s-.44.76-.69,1.13a0,0,0,0,1-.07,0A3.45,3.45,0,0,1,291.07,265.35Z" style="fill:#263238"></path><path d="M288.52,264.66a6.52,6.52,0,0,1,.73-1.07,7.14,7.14,0,0,1,1.84-1.58.05.05,0,0,1,.06.08,13.46,13.46,0,0,0-1.7,1.76c-.26.32-.5.65-.74,1s-.43.71-.7,1c0,0-.06,0-.05,0A6.11,6.11,0,0,1,288.52,264.66Z" style="fill:#263238"></path><path d="M286.57,263.56c.25-.3.52-.58.79-.86a3.85,3.85,0,0,1,.88-.73.05.05,0,0,1,.06.08c-.5.56-1,1.14-1.47,1.71a10.4,10.4,0,0,0-1,1.8s-.06,0-.06,0A3.67,3.67,0,0,1,286.57,263.56Z" style="fill:#263238"></path><path d="M284.37,263.48A5.88,5.88,0,0,1,286,262a.05.05,0,0,1,.06.08,7.26,7.26,0,0,0-1.49,1.59,10.23,10.23,0,0,0-1.05,1.92s-.07,0-.07,0A4.89,4.89,0,0,1,284.37,263.48Z" style="fill:#263238"></path><path d="M281.82,265.24a3.71,3.71,0,0,1,.16-.47,5.81,5.81,0,0,1,.49-.88,9.54,9.54,0,0,1,1.39-1.52c0-.05.1,0,.06.07a7.83,7.83,0,0,0-1.27,1.54,5.51,5.51,0,0,0-.47.86,3.38,3.38,0,0,0-.18.44,3.34,3.34,0,0,1-.17.44s-.08,0-.08,0A1.25,1.25,0,0,1,281.82,265.24Z" style="fill:#263238"></path><path d="M280.14,265.7c.13-.25.26-.49.41-.73s.31-.45.48-.67.38-.43.55-.65c0-.06.11,0,.07.06a4.88,4.88,0,0,0-.49.7l-.43.68-.42.69a7.34,7.34,0,0,1-.42.71s-.07,0-.06,0A3.37,3.37,0,0,1,280.14,265.7Z" style="fill:#263238"></path><path d="M296.65,310.22s8.72-14.6,19.53-16l-.94,8.12s-6.45,0-17.83,10.23Z" style="fill:#455a64"></path><path d="M318.15,302.5a13.6,13.6,0,0,0-5.8.75A25.39,25.39,0,0,0,307,305.7a44.35,44.35,0,0,0-4.86,3.32l-2.26,1.88-2.19,2-.24.22-.27-.14a49.68,49.68,0,0,1-5.81-3.53,28.45,28.45,0,0,1-2.68-2.1c-.84-.76-4.33-4-5.05-6.42,1.26,2.31,6.18,6.82,8.06,8,.95.59,1.93,1.14,2.91,1.68s2,1.06,3,1.54l-.52.08,2.19-2.05c.75-.66,1.53-1.3,2.3-1.93s1.61-1.2,2.44-1.76,1.69-1.09,2.59-1.55a23.32,23.32,0,0,1,5.59-2.23c.48-.14,1-.22,1.47-.32s1-.13,1.5-.15A8.78,8.78,0,0,1,318.15,302.5Z" style="fill:#263238"></path><path d="M321.15,307.63a28.68,28.68,0,0,1-3.12-2.47,29.71,29.71,0,0,1-2.79-2.82,32.72,32.72,0,0,1,5.91,5.29Z" style="fill:#263238"></path><path d="M301.06,307.63a59.32,59.32,0,0,1,.9,10.24c0,2.4-1,11-3.67,10.63s1.75-5.83,2.57-10.35-.35-7.85-.48-10.56Z" style="fill:#EECD18"></path><g style="opacity:0.1"><path d="M301.06,307.63a59.32,59.32,0,0,1,.9,10.24c0,2.4-1,11-3.67,10.63s1.75-5.83,2.57-10.35-.35-7.85-.48-10.56Z"></path></g><path d="M291.62,308a85.49,85.49,0,0,0-2.11,9.93c-.32,2.15-.47,10,1.95,10s-.83-5.45-1-9.62,1.32-7.85,1.77-10.27Z" style="fill:#EECD18"></path><g style="opacity:0.1"><path d="M291.62,308a85.49,85.49,0,0,0-2.11,9.93c-.32,2.15-.47,10,1.95,10s-.83-5.45-1-9.62,1.32-7.85,1.77-10.27Z"></path></g></g><g id="freepik--Suitcase--inject-64"><rect x="338.27" y="315.07" width="3.21" height="47.94" transform="translate(679.74 678.08) rotate(180)" style="fill:#dbdbdb"></rect><rect x="306.33" y="315.07" width="3.21" height="47.94" transform="translate(615.86 678.08) rotate(180)" style="fill:#dbdbdb"></rect><rect x="337" y="311.46" width="5.57" height="7.39" transform="translate(679.58 630.31) rotate(180)" style="fill:#263238"></rect><rect x="305.15" y="311.46" width="5.57" height="7.39" transform="translate(615.86 630.31) rotate(180)" style="fill:#263238"></rect><polygon points="305.15 309.58 305.15 315.16 313.13 315.16 314.7 316.27 333.02 316.27 334.59 315.16 342.57 315.16 342.57 309.58 334.59 309.58 333.02 310.7 314.7 310.7 313.13 309.58 305.15 309.58" style="fill:#263238"></polygon><rect x="288.71" y="363.01" width="70.39" height="99.91" transform="translate(647.8 825.93) rotate(180)" style="fill:#EECD18"></rect><rect x="288.71" y="363.01" width="70.39" height="99.91" transform="translate(647.8 825.93) rotate(180)" style="opacity:0.1"></rect><rect x="296.43" y="370.74" width="54.94" height="84.45" transform="translate(647.8 825.93) rotate(180)" style="fill:#EECD18"></rect><g style="opacity:0.1"><path d="M345.36,374.34c-.15,6.44-.22,12.87-.28,19.31L345,413l.09,19.31.1,9.66.18,9.66.17-9.66.1-9.66.09-19.31-.09-19.32C345.58,387.21,345.51,380.78,345.36,374.34Z"></path><path d="M338.24,374.34c-.14,6.44-.21,12.87-.27,19.31L337.88,413l.09,19.31.1,9.66.17,9.66.18-9.66.1-9.66.09-19.31-.09-19.32C338.46,387.21,338.39,380.78,338.24,374.34Z"></path><path d="M331.13,374.34c-.15,6.44-.22,12.87-.27,19.31L330.77,413l.08,19.31.11,9.66.17,9.66.18-9.66.1-9.66L331.5,413l-.09-19.32C331.35,387.21,331.28,380.78,331.13,374.34Z"></path><path d="M324,374.34c-.15,6.44-.22,12.87-.27,19.31L323.66,413l.08,19.31.11,9.66.17,9.66.18-9.66.1-9.66.08-19.31-.08-19.32C324.24,387.21,324.17,380.78,324,374.34Z"></path><path d="M316.91,374.34c-.15,6.44-.22,12.87-.28,19.31L316.55,413l.08,19.31.1,9.66.18,9.66.18-9.66.1-9.66.08-19.31-.08-19.32C317.13,387.21,317.06,380.78,316.91,374.34Z"></path><path d="M309.8,374.34c-.15,6.44-.22,12.87-.28,19.31L309.44,413l.08,19.31.1,9.66.18,9.66.18-9.66.1-9.66.08-19.31-.08-19.32C310,387.21,310,380.78,309.8,374.34Z"></path><path d="M302.69,374.34c-.15,6.44-.22,12.87-.28,19.31L302.33,413l.08,19.31.1,9.66.18,9.66.18-9.66.1-9.66.08-19.31L303,393.65C302.91,387.21,302.84,380.78,302.69,374.34Z"></path></g><polygon points="359.1 455.23 345.84 455.23 340.54 462.92 359.1 462.92 359.1 455.23" style="fill:#263238"></polygon><polygon points="288.71 455.23 301.97 455.23 307.27 462.92 288.71 462.92 288.71 455.23" style="fill:#263238"></polygon><polygon points="359.1 386.14 362.8 385.41 362.8 377.12 359.1 376.4 359.1 386.14" style="fill:#263238"></polygon><polygon points="359.1 449.53 362.8 448.81 362.8 440.52 359.1 439.8 359.1 449.53" style="fill:#263238"></polygon><path d="M282.6,413c0,15.18,3.69,24.5,3.69,24.5h2.42V423.41h-3.06V402.52h3.06V388.46h-2.42S282.6,397.78,282.6,413Z" style="fill:#263238"></path><path d="M284.8,432.44a42,42,0,0,0,1.49,5h2.42v-5Z" style="fill:#dbdbdb"></path><path d="M284.8,393.5h3.91v-5h-2.42A41.89,41.89,0,0,0,284.8,393.5Z" style="fill:#dbdbdb"></path><path d="M323.54,357.63c-15.19,0-18.71,3.69-18.71,3.69V363h9v-2.33h19.44V363H343v-1.69S338.73,357.63,323.54,357.63Z" style="fill:#263238"></path><polygon points="350.75 469.09 354.03 469.09 356.2 462.92 349.12 462.92 351.15 466 350.75 469.09" style="fill:#263238"></polygon><path d="M347.71,471a4.52,4.52,0,1,0,4.52-4.52A4.52,4.52,0,0,0,347.71,471Z" style="fill:#263238"></path><path d="M349.76,471a2.47,2.47,0,1,0,2.47-2.47A2.47,2.47,0,0,0,349.76,471Z" style="fill:#dbdbdb"></path><path d="M352.18,469.46c0,.36,0,.64.09.64s.1-.28.1-.64-.05-.64-.1-.64S352.18,469.11,352.18,469.46Z" style="fill:#263238"></path><path d="M353.25,469.86c-.25.25-.43.49-.39.53s.27-.14.52-.39.43-.49.39-.52S353.5,469.61,353.25,469.86Z" style="fill:#263238"></path><path d="M353.72,470.91c-.35,0-.64,0-.64.09s.29.1.64.1.65,0,.65-.1S354.08,470.91,353.72,470.91Z" style="fill:#263238"></path><path d="M353.32,472c-.25-.25-.48-.42-.52-.39s.13.27.39.52.48.43.52.39S353.57,472.23,353.32,472Z" style="fill:#263238"></path><path d="M352.28,472.45c0-.35,0-.64-.1-.64s-.09.29-.09.64,0,.65.09.65S352.28,472.81,352.28,472.45Z" style="fill:#263238"></path><path d="M351.2,472.05c.25-.25.43-.48.39-.52s-.27.13-.52.39-.43.48-.39.52S351,472.3,351.2,472.05Z" style="fill:#263238"></path><ellipse cx="350.73" cy="470.91" rx="0.64" ry="0.1" style="fill:#263238"></ellipse><path d="M351.13,469.93c.25.26.49.43.52.39s-.13-.27-.38-.52-.49-.42-.52-.39S350.88,469.68,351.13,469.93Z" style="fill:#263238"></path><polygon points="297.06 469.09 293.77 469.09 291.6 462.92 298.68 462.92 296.66 466 297.06 469.09" style="fill:#263238"></polygon><path d="M300.1,471a4.52,4.52,0,1,1-4.52-4.52A4.53,4.53,0,0,1,300.1,471Z" style="fill:#263238"></path><path d="M298.05,471a2.47,2.47,0,1,1-2.47-2.47A2.48,2.48,0,0,1,298.05,471Z" style="fill:#dbdbdb"></path><path d="M295.63,469.46c0,.36,0,.64-.1.64s-.09-.28-.09-.64,0-.64.09-.64S295.63,469.11,295.63,469.46Z" style="fill:#263238"></path><path d="M294.56,469.86c.25.25.42.49.38.53s-.27-.14-.52-.39-.42-.49-.39-.52S294.3,469.61,294.56,469.86Z" style="fill:#263238"></path><path d="M294.08,470.91c.36,0,.64,0,.64.09s-.28.1-.64.1-.64,0-.64-.1S293.73,470.91,294.08,470.91Z" style="fill:#263238"></path><path d="M294.48,472c.26-.25.49-.42.53-.39s-.14.27-.39.52-.49.43-.52.39S294.23,472.23,294.48,472Z" style="fill:#263238"></path><path d="M295.53,472.45c0-.35,0-.64.09-.64s.1.29.1.64,0,.65-.1.65S295.53,472.81,295.53,472.45Z" style="fill:#263238"></path><path d="M296.6,472.05c-.25-.25-.42-.48-.39-.52s.27.13.53.39.42.48.38.52S296.85,472.3,296.6,472.05Z" style="fill:#263238"></path><ellipse cx="297.07" cy="470.91" rx="0.64" ry="0.1" style="fill:#263238"></ellipse><path d="M296.67,469.93c-.25.26-.48.43-.52.39s.14-.27.39-.52.48-.42.52-.39S296.92,469.68,296.67,469.93Z" style="fill:#263238"></path></g></svg>
